solid OpenSCAD_Model
  facet normal -1 0 0
    outer loop
      vertex -27.5 -11.3909 0
      vertex -27.5 -11.3909 10
      vertex -27.5 11.3909 0
    endloop
  endfacet
  facet normal -1 0 0
    outer loop
      vertex -27.5 11.3909 0
      vertex -27.5 -11.3909 10
      vertex -27.5 11.3909 10
    endloop
  endfacet
  facet normal -0.707107 -0.707107 0
    outer loop
      vertex -27.5 -11.3909 10
      vertex -27.5 -11.3909 0
      vertex -11.3909 -27.5 0
    endloop
  endfacet
  facet normal -0.707107 -0.707107 0
    outer loop
      vertex -11.3909 -27.5 10
      vertex -27.5 -11.3909 10
      vertex -11.3909 -27.5 0
    endloop
  endfacet
  facet normal 0 0 -1
    outer loop
      vertex -27.5 -11.3909 0
      vertex -27.5 11.3909 0
      vertex -11.3909 -27.5 0
    endloop
  endfacet
  facet normal 0 0 -1
    outer loop
      vertex -11.3909 -27.5 0
      vertex -27.5 11.3909 0
      vertex -11.3909 27.5 0
    endloop
  endfacet
  facet normal 0 0 -1
    outer loop
      vertex -11.3909 -27.5 0
      vertex -11.3909 27.5 0
      vertex 11.3909 27.5 0
    endloop
  endfacet
  facet normal 0 0 -1
    outer loop
      vertex -11.3909 -27.5 0
      vertex 11.3909 27.5 0
      vertex 27.5 11.3909 0
    endloop
  endfacet
  facet normal 0 0 -1
    outer loop
      vertex -11.3909 -27.5 0
      vertex 27.5 11.3909 0
      vertex 27.5 -11.3909 0
    endloop
  endfacet
  facet normal 0 0 -1
    outer loop
      vertex -11.3909 -27.5 0
      vertex 27.5 -11.3909 0
      vertex 11.3909 -27.5 0
    endloop
  endfacet
  facet normal -0.707107 0.707107 0
    outer loop
      vertex -27.5 11.3909 0
      vertex -27.5 11.3909 10
      vertex -11.3909 27.5 0
    endloop
  endfacet
  facet normal -0.707107 0.707107 0
    outer loop
      vertex -11.3909 27.5 0
      vertex -27.5 11.3909 10
      vertex -11.3909 27.5 10
    endloop
  endfacet
  facet normal 0 0 1
    outer loop
      vertex -25 -10.3553 10
      vertex -27.5 -11.3909 10
      vertex -11.3909 -27.5 10
    endloop
  endfacet
  facet normal 0 0 1
    outer loop
      vertex 27.5 -11.3909 10
      vertex 25 -10.3553 10
      vertex 11.3909 -27.5 10
    endloop
  endfacet
  facet normal 0 0 1
    outer loop
      vertex -10.3553 25 10
      vertex 10.3553 25 10
      vertex 11.3909 27.5 10
    endloop
  endfacet
  facet normal 0 0 1
    outer loop
      vertex 10.3553 25 10
      vertex 25 10.3553 10
      vertex 27.5 11.3909 10
    endloop
  endfacet
  facet normal 0 0 1
    outer loop
      vertex -27.5 11.3909 10
      vertex -27.5 -11.3909 10
      vertex -25 -10.3553 10
    endloop
  endfacet
  facet normal 0 0 1
    outer loop
      vertex -11.3909 27.5 10
      vertex -10.3553 25 10
      vertex 11.3909 27.5 10
    endloop
  endfacet
  facet normal 0 0 1
    outer loop
      vertex -11.3909 27.5 10
      vertex -27.5 11.3909 10
      vertex -10.3553 25 10
    endloop
  endfacet
  facet normal 0 0 1
    outer loop
      vertex 11.3909 27.5 10
      vertex 10.3553 25 10
      vertex 27.5 11.3909 10
    endloop
  endfacet
  facet normal 0 0 1
    outer loop
      vertex 27.5 11.3909 10
      vertex 25 10.3553 10
      vertex 27.5 -11.3909 10
    endloop
  endfacet
  facet normal 0 0 1
    outer loop
      vertex 25 10.3553 10
      vertex 25 -10.3553 10
      vertex 27.5 -11.3909 10
    endloop
  endfacet
  facet normal 0 0 1
    outer loop
      vertex 25 -10.3553 10
      vertex 10.3553 -25 10
      vertex 11.3909 -27.5 10
    endloop
  endfacet
  facet normal 0 0 1
    outer loop
      vertex 11.3909 -27.5 10
      vertex -10.3553 -25 10
      vertex -11.3909 -27.5 10
    endloop
  endfacet
  facet normal 0 0 1
    outer loop
      vertex 10.3553 -25 10
      vertex -10.3553 -25 10
      vertex 11.3909 -27.5 10
    endloop
  endfacet
  facet normal 0 0 1
    outer loop
      vertex -10.3553 -25 10
      vertex -25 -10.3553 10
      vertex -11.3909 -27.5 10
    endloop
  endfacet
  facet normal 0 0 1
    outer loop
      vertex -25 -10.3553 10
      vertex -25 10.3553 10
      vertex -27.5 11.3909 10
    endloop
  endfacet
  facet normal 0 0 1
    outer loop
      vertex -25 10.3553 10
      vertex -10.3553 25 10
      vertex -27.5 11.3909 10
    endloop
  endfacet
  facet normal 0 -1 0
    outer loop
      vertex -11.3909 -27.5 10
      vertex -11.3909 -27.5 0
      vertex 11.3909 -27.5 0
    endloop
  endfacet
  facet normal 0 -1 0
    outer loop
      vertex 11.3909 -27.5 10
      vertex -11.3909 -27.5 10
      vertex 11.3909 -27.5 0
    endloop
  endfacet
  facet normal 0.707107 -0.707107 0
    outer loop
      vertex 11.3909 -27.5 10
      vertex 11.3909 -27.5 0
      vertex 27.5 -11.3909 0
    endloop
  endfacet
  facet normal 0.707107 -0.707107 0
    outer loop
      vertex 27.5 -11.3909 10
      vertex 11.3909 -27.5 10
      vertex 27.5 -11.3909 0
    endloop
  endfacet
  facet normal 1 0 0
    outer loop
      vertex 27.5 -11.3909 10
      vertex 27.5 -11.3909 0
      vertex 27.5 11.3909 0
    endloop
  endfacet
  facet normal 1 0 0
    outer loop
      vertex 27.5 11.3909 10
      vertex 27.5 -11.3909 10
      vertex 27.5 11.3909 0
    endloop
  endfacet
  facet normal 0.707107 0.707107 0
    outer loop
      vertex 11.3909 27.5 0
      vertex 11.3909 27.5 10
      vertex 27.5 11.3909 0
    endloop
  endfacet
  facet normal 0.707107 0.707107 0
    outer loop
      vertex 27.5 11.3909 0
      vertex 11.3909 27.5 10
      vertex 27.5 11.3909 10
    endloop
  endfacet
  facet normal 0 1 0
    outer loop
      vertex -11.3909 27.5 0
      vertex -11.3909 27.5 10
      vertex 11.3909 27.5 0
    endloop
  endfacet
  facet normal 0 1 0
    outer loop
      vertex 11.3909 27.5 0
      vertex -11.3909 27.5 10
      vertex 11.3909 27.5 10
    endloop
  endfacet
  facet normal 0.707107 0.707107 0
    outer loop
      vertex -10.3553 -25 10
      vertex -10.3553 -25 9
      vertex -25 -10.3553 10
    endloop
  endfacet
  facet normal 0.707107 0.707107 0
    outer loop
      vertex -25 -10.3553 10
      vertex -10.3553 -25 9
      vertex -25 -10.3553 9
    endloop
  endfacet
  facet normal 1 0 0
    outer loop
      vertex -25 10.3553 9
      vertex -25 10.3553 10
      vertex -25 -10.3553 10
    endloop
  endfacet
  facet normal 1 0 0
    outer loop
      vertex -25 -10.3553 9
      vertex -25 10.3553 9
      vertex -25 -10.3553 10
    endloop
  endfacet
  facet normal 0 1 0
    outer loop
      vertex 10.3553 -25 10
      vertex 10.3553 -25 9
      vertex -10.3553 -25 10
    endloop
  endfacet
  facet normal 0 1 0
    outer loop
      vertex -10.3553 -25 10
      vertex 10.3553 -25 9
      vertex -10.3553 -25 9
    endloop
  endfacet
  facet normal -0.707107 0.707107 0
    outer loop
      vertex 25 -10.3553 10
      vertex 25 -10.3553 9
      vertex 10.3553 -25 10
    endloop
  endfacet
  facet normal -0.707107 0.707107 0
    outer loop
      vertex 10.3553 -25 10
      vertex 25 -10.3553 9
      vertex 10.3553 -25 9
    endloop
  endfacet
  facet normal -1 0 0
    outer loop
      vertex 25 10.3553 10
      vertex 25 10.3553 9
      vertex 25 -10.3553 10
    endloop
  endfacet
  facet normal -1 0 0
    outer loop
      vertex 25 -10.3553 10
      vertex 25 10.3553 9
      vertex 25 -10.3553 9
    endloop
  endfacet
  facet normal -0.707107 -0.707107 0
    outer loop
      vertex 25 10.3553 9
      vertex 25 10.3553 10
      vertex 10.3553 25 10
    endloop
  endfacet
  facet normal -0.707107 -0.707107 0
    outer loop
      vertex 10.3553 25 9
      vertex 25 10.3553 9
      vertex 10.3553 25 10
    endloop
  endfacet
  facet normal 0 -1 0
    outer loop
      vertex 10.3553 25 9
      vertex 10.3553 25 10
      vertex -10.3553 25 10
    endloop
  endfacet
  facet normal 0 -1 0
    outer loop
      vertex -10.3553 25 9
      vertex 10.3553 25 9
      vertex -10.3553 25 10
    endloop
  endfacet
  facet normal 0.707107 -0.707107 0
    outer loop
      vertex -10.3553 25 9
      vertex -10.3553 25 10
      vertex -25 10.3553 10
    endloop
  endfacet
  facet normal 0.707107 -0.707107 0
    outer loop
      vertex -25 10.3553 9
      vertex -10.3553 25 9
      vertex -25 10.3553 10
    endloop
  endfacet
  facet normal 0 0 -1
    outer loop
      vertex -25 10.3553 9
      vertex -26.5 10.9767 9
      vertex -10.3553 25 9
    endloop
  endfacet
  facet normal 0 0 -1
    outer loop
      vertex 10.3553 25 9
      vertex 10.9767 26.5 9
      vertex 26.5 10.9767 9
    endloop
  endfacet
  facet normal 0 0 -1
    outer loop
      vertex 25 10.3553 9
      vertex 26.5 10.9767 9
      vertex 25 -10.3553 9
    endloop
  endfacet
  facet normal 0 0 -1
    outer loop
      vertex 10.3553 -25 9
      vertex 26.5 -10.9767 9
      vertex 10.9767 -26.5 9
    endloop
  endfacet
  facet normal 0 0 -1
    outer loop
      vertex -10.3553 -25 9
      vertex 10.9767 -26.5 9
      vertex -10.9767 -26.5 9
    endloop
  endfacet
  facet normal 0 0 -1
    outer loop
      vertex -25 -10.3553 9
      vertex -10.9767 -26.5 9
      vertex -26.5 -10.9767 9
    endloop
  endfacet
  facet normal 0 0 -1
    outer loop
      vertex -10.3553 -25 9
      vertex -10.9767 -26.5 9
      vertex -25 -10.3553 9
    endloop
  endfacet
  facet normal 0 0 -1
    outer loop
      vertex -26.5 10.9767 9
      vertex -25 -10.3553 9
      vertex -26.5 -10.9767 9
    endloop
  endfacet
  facet normal 0 0 -1
    outer loop
      vertex 25 -10.3553 9
      vertex 26.5 -10.9767 9
      vertex 10.3553 -25 9
    endloop
  endfacet
  facet normal 0 0 -1
    outer loop
      vertex 26.5 10.9767 9
      vertex 26.5 -10.9767 9
      vertex 25 -10.3553 9
    endloop
  endfacet
  facet normal 0 0 -1
    outer loop
      vertex -10.3553 25 9
      vertex 10.9767 26.5 9
      vertex 10.3553 25 9
    endloop
  endfacet
  facet normal 0 0 -1
    outer loop
      vertex -10.9767 26.5 9
      vertex 10.9767 26.5 9
      vertex -10.3553 25 9
    endloop
  endfacet
  facet normal 0 0 -1
    outer loop
      vertex -10.9767 26.5 9
      vertex -10.3553 25 9
      vertex -26.5 10.9767 9
    endloop
  endfacet
  facet normal 0 0 -1
    outer loop
      vertex -25 -10.3553 9
      vertex -26.5 10.9767 9
      vertex -25 10.3553 9
    endloop
  endfacet
  facet normal 0 0 -1
    outer loop
      vertex 10.3553 25 9
      vertex 26.5 10.9767 9
      vertex 25 10.3553 9
    endloop
  endfacet
  facet normal 0 0 -1
    outer loop
      vertex 10.3553 -25 9
      vertex 10.9767 -26.5 9
      vertex -10.3553 -25 9
    endloop
  endfacet
  facet normal 0.707107 -0.707107 0
    outer loop
      vertex -10.9767 26.5 1
      vertex -10.9767 26.5 9
      vertex -26.5 10.9767 9
    endloop
  endfacet
  facet normal 0.707107 -0.707107 0
    outer loop
      vertex -26.5 10.9767 1
      vertex -10.9767 26.5 1
      vertex -26.5 10.9767 9
    endloop
  endfacet
  facet normal 1 0 0
    outer loop
      vertex -26.5 10.9767 1
      vertex -26.5 10.9767 9
      vertex -26.5 -10.9767 9
    endloop
  endfacet
  facet normal 1 0 0
    outer loop
      vertex -26.5 -10.9767 1
      vertex -26.5 10.9767 1
      vertex -26.5 -10.9767 9
    endloop
  endfacet
  facet normal 0.707107 0.707107 0
    outer loop
      vertex -10.9767 -26.5 9
      vertex -10.9767 -26.5 1
      vertex -26.5 -10.9767 9
    endloop
  endfacet
  facet normal 0.707107 0.707107 0
    outer loop
      vertex -26.5 -10.9767 9
      vertex -10.9767 -26.5 1
      vertex -26.5 -10.9767 1
    endloop
  endfacet
  facet normal 0 1 0
    outer loop
      vertex 10.9767 -26.5 9
      vertex 10.9767 -26.5 1
      vertex -10.9767 -26.5 9
    endloop
  endfacet
  facet normal 0 1 0
    outer loop
      vertex -10.9767 -26.5 9
      vertex 10.9767 -26.5 1
      vertex -10.9767 -26.5 1
    endloop
  endfacet
  facet normal -0.707107 0.707107 0
    outer loop
      vertex 26.5 -10.9767 9
      vertex 26.5 -10.9767 1
      vertex 10.9767 -26.5 9
    endloop
  endfacet
  facet normal -0.707107 0.707107 0
    outer loop
      vertex 10.9767 -26.5 9
      vertex 26.5 -10.9767 1
      vertex 10.9767 -26.5 1
    endloop
  endfacet
  facet normal -1 0 0
    outer loop
      vertex 26.5 10.9767 9
      vertex 26.5 10.9767 1
      vertex 26.5 -10.9767 9
    endloop
  endfacet
  facet normal -1 0 0
    outer loop
      vertex 26.5 -10.9767 9
      vertex 26.5 10.9767 1
      vertex 26.5 -10.9767 1
    endloop
  endfacet
  facet normal -0.707107 -0.707107 0
    outer loop
      vertex 26.5 10.9767 1
      vertex 26.5 10.9767 9
      vertex 10.9767 26.5 9
    endloop
  endfacet
  facet normal -0.707107 -0.707107 0
    outer loop
      vertex 10.9767 26.5 1
      vertex 26.5 10.9767 1
      vertex 10.9767 26.5 9
    endloop
  endfacet
  facet normal 0 -1 0
    outer loop
      vertex 10.9767 26.5 1
      vertex 10.9767 26.5 9
      vertex -10.9767 26.5 9
    endloop
  endfacet
  facet normal 0 -1 0
    outer loop
      vertex -10.9767 26.5 1
      vertex 10.9767 26.5 1
      vertex -10.9767 26.5 9
    endloop
  endfacet
  facet normal 0 0 1
    outer loop
      vertex -10.9767 -26.5 1
      vertex 10.9767 -26.5 1
      vertex 26.5 -10.9767 1
    endloop
  endfacet
  facet normal 0 0 1
    outer loop
      vertex 4.73484 -3.68528 1
      vertex -10.9767 -26.5 1
      vertex 26.5 10.9767 1
    endloop
  endfacet
  facet normal 0 0 1
    outer loop
      vertex 26.5 10.9767 1
      vertex -10.9767 -26.5 1
      vertex 26.5 -10.9767 1
    endloop
  endfacet
  facet normal 0 0 1
    outer loop
      vertex 4.73484 -3.68528 1
      vertex 3.28169 -5.023 1
      vertex -10.9767 -26.5 1
    endloop
  endfacet
  facet normal 0 0 1
    outer loop
      vertex -26.5 10.9767 1
      vertex -10.9767 -26.5 1
      vertex -10.9767 26.5 1
    endloop
  endfacet
  facet normal 0 0 1
    outer loop
      vertex -26.5 -10.9767 1
      vertex -10.9767 -26.5 1
      vertex -26.5 10.9767 1
    endloop
  endfacet
  facet normal 0 0 1
    outer loop
      vertex -10.9767 26.5 1
      vertex -10.9767 -26.5 1
      vertex -5.91817 0.987568 1
    endloop
  endfacet
  facet normal 0 0 1
    outer loop
      vertex -10.9767 26.5 1
      vertex -5.27684 2.85568 1
      vertex 10.9767 26.5 1
    endloop
  endfacet
  facet normal 0 0 1
    outer loop
      vertex -10.9767 26.5 1
      vertex -5.91817 0.987568 1
      vertex -5.27684 2.85568 1
    endloop
  endfacet
  facet normal 0 0 1
    outer loop
      vertex -5.27684 2.85568 1
      vertex -4.06369 4.41434 1
      vertex 10.9767 26.5 1
    endloop
  endfacet
  facet normal 0 0 1
    outer loop
      vertex -2.41017 5.49464 1
      vertex -0.495476 5.97951 1
      vertex 10.9767 26.5 1
    endloop
  endfacet
  facet normal 0 0 1
    outer loop
      vertex -0.495476 5.97951 1
      vertex 1.47291 5.8164 1
      vertex 10.9767 26.5 1
    endloop
  endfacet
  facet normal 0 0 1
    outer loop
      vertex -4.06369 -4.41434 1
      vertex -5.27684 -2.85568 1
      vertex -10.9767 -26.5 1
    endloop
  endfacet
  facet normal 0 0 1
    outer loop
      vertex 10.9767 26.5 1
      vertex 3.28169 5.023 1
      vertex 26.5 10.9767 1
    endloop
  endfacet
  facet normal 0 0 1
    outer loop
      vertex 3.28169 5.023 1
      vertex 4.73484 3.68528 1
      vertex 26.5 10.9767 1
    endloop
  endfacet
  facet normal 0 0 1
    outer loop
      vertex 4.73484 3.68528 1
      vertex 5.6749 1.9482 1
      vertex 26.5 10.9767 1
    endloop
  endfacet
  facet normal 0 0 1
    outer loop
      vertex -0.495476 -5.97951 1
      vertex -2.41017 -5.49464 1
      vertex -10.9767 -26.5 1
    endloop
  endfacet
  facet normal 0 0 1
    outer loop
      vertex 5.6749 1.9482 1
      vertex 6 0 1
      vertex 26.5 10.9767 1
    endloop
  endfacet
  facet normal 0 0 1
    outer loop
      vertex 6 0 1
      vertex 5.6749 -1.9482 1
      vertex 26.5 10.9767 1
    endloop
  endfacet
  facet normal 0 0 1
    outer loop
      vertex 5.6749 -1.9482 1
      vertex 4.73484 -3.68528 1
      vertex 26.5 10.9767 1
    endloop
  endfacet
  facet normal 0 0 1
    outer loop
      vertex 3.28169 -5.023 1
      vertex 1.47291 -5.8164 1
      vertex -10.9767 -26.5 1
    endloop
  endfacet
  facet normal 0 0 1
    outer loop
      vertex -2.41017 -5.49464 1
      vertex -4.06369 -4.41434 1
      vertex -10.9767 -26.5 1
    endloop
  endfacet
  facet normal 0 0 1
    outer loop
      vertex 1.47291 -5.8164 1
      vertex -0.495476 -5.97951 1
      vertex -10.9767 -26.5 1
    endloop
  endfacet
  facet normal 0 0 1
    outer loop
      vertex -5.91817 -0.987568 1
      vertex -10.9767 -26.5 1
      vertex -5.27684 -2.85568 1
    endloop
  endfacet
  facet normal 0 0 1
    outer loop
      vertex -5.91817 0.987568 1
      vertex -10.9767 -26.5 1
      vertex -5.91817 -0.987568 1
    endloop
  endfacet
  facet normal 0 0 1
    outer loop
      vertex -4.06369 4.41434 1
      vertex -2.41017 5.49464 1
      vertex 10.9767 26.5 1
    endloop
  endfacet
  facet normal 0 0 1
    outer loop
      vertex 1.47291 5.8164 1
      vertex 3.28169 5.023 1
      vertex 10.9767 26.5 1
    endloop
  endfacet
  facet normal -0.945817 0.324699 0
    outer loop
      vertex -5.91817 0.987568 1
      vertex -5.91817 0.987568 22.6291
      vertex -5.27684 2.85568 1
    endloop
  endfacet
  facet normal -0.945817 0.324699 0
    outer loop
      vertex -5.27684 2.85568 1
      vertex -5.91817 0.987568 22.6291
      vertex -5.27684 2.85568 22.3842
    endloop
  endfacet
  facet normal -1 0 0
    outer loop
      vertex -5.91817 -0.987568 1
      vertex -5.91817 -0.987568 22.6291
      vertex -5.91817 0.987568 1
    endloop
  endfacet
  facet normal -1 0 0
    outer loop
      vertex -5.91817 0.987568 1
      vertex -5.91817 -0.987568 22.6291
      vertex -5.91817 0.987568 22.6291
    endloop
  endfacet
  facet normal -0.945817 -0.324699 0
    outer loop
      vertex -5.91817 -0.987568 1
      vertex -5.27684 -2.85568 1
      vertex -5.91817 -0.987568 22.6291
    endloop
  endfacet
  facet normal -0.945817 -0.324699 0
    outer loop
      vertex -5.91817 -0.987568 22.6291
      vertex -5.27684 -2.85568 1
      vertex -5.27684 -2.85568 22.3842
    endloop
  endfacet
  facet normal -0.78914 -0.614213 0
    outer loop
      vertex -5.27684 -2.85568 1
      vertex -4.06369 -4.41434 1
      vertex -5.27684 -2.85568 22.3842
    endloop
  endfacet
  facet normal -0.78914 -0.614213 0
    outer loop
      vertex -4.9041 -3.33458 22.2418
      vertex -4.06369 -4.41434 1
      vertex -4.06369 -4.41434 21.9208
    endloop
  endfacet
  facet normal -0.78914 -0.614213 0
    outer loop
      vertex -5.27684 -2.85568 22.3842
      vertex -4.06369 -4.41434 1
      vertex -4.9041 -3.33458 22.2418
    endloop
  endfacet
  facet normal -0.546949 -0.837166 0
    outer loop
      vertex -4.06369 -4.41434 21.9208
      vertex -4.06369 -4.41434 1
      vertex -2.41017 -5.49464 1
    endloop
  endfacet
  facet normal -0.546949 -0.837166 0
    outer loop
      vertex -3.18569 -4.98797 21.5854
      vertex -4.06369 -4.41434 21.9208
      vertex -2.41017 -5.49464 1
    endloop
  endfacet
  facet normal -0.546949 -0.837166 0
    outer loop
      vertex -2.41017 -5.49464 21.8986
      vertex -3.18569 -4.98797 21.5854
      vertex -2.41017 -5.49464 1
    endloop
  endfacet
  facet normal -0.245485 -0.9694 0
    outer loop
      vertex -2.41017 -5.49464 21.8986
      vertex -2.41017 -5.49464 1
      vertex -0.495476 -5.97951 1
    endloop
  endfacet
  facet normal -0.245485 -0.9694 0
    outer loop
      vertex -1.10957 -5.824 22.1021
      vertex -2.41017 -5.49464 21.8986
      vertex -0.495476 -5.97951 1
    endloop
  endfacet
  facet normal -0.245485 -0.9694 0
    outer loop
      vertex -0.495476 -5.97951 22.1982
      vertex -1.10957 -5.824 22.1021
      vertex -0.495476 -5.97951 1
    endloop
  endfacet
  facet normal 0.0825792 -0.996585 0
    outer loop
      vertex -0.495476 -5.97951 22.1982
      vertex -0.495476 -5.97951 1
      vertex 1.47291 -5.8164 1
    endloop
  endfacet
  facet normal 0.0825792 -0.996585 0
    outer loop
      vertex 1.11791 -5.84582 22.1156
      vertex -0.495476 -5.97951 22.1982
      vertex 1.47291 -5.8164 1
    endloop
  endfacet
  facet normal 0.0825792 -0.996585 0
    outer loop
      vertex 1.47291 -5.8164 22.0974
      vertex 1.11791 -5.84582 22.1156
      vertex 1.47291 -5.8164 1
    endloop
  endfacet
  facet normal 0.401696 -0.915773 0
    outer loop
      vertex 1.47291 -5.8164 22.0974
      vertex 1.47291 -5.8164 1
      vertex 3.28169 -5.023 1
    endloop
  endfacet
  facet normal 0.401696 -0.915773 0
    outer loop
      vertex 3.2587 -5.03308 21.6133
      vertex 1.47291 -5.8164 22.0974
      vertex 3.28169 -5.023 1
    endloop
  endfacet
  facet normal 0.401696 -0.915773 0
    outer loop
      vertex 3.28169 -5.023 21.6221
      vertex 3.2587 -5.03308 21.6133
      vertex 3.28169 -5.023 1
    endloop
  endfacet
  facet normal 0.677282 -0.735724 0
    outer loop
      vertex 3.28169 -5.023 21.6221
      vertex 3.28169 -5.023 1
      vertex 4.73484 -3.68528 1
    endloop
  endfacet
  facet normal 0.677282 -0.735724 0
    outer loop
      vertex 4.73484 -3.68528 22.1771
      vertex 3.28169 -5.023 21.6221
      vertex 4.73484 -3.68528 1
    endloop
  endfacet
  facet normal 0.879474 -0.475947 0
    outer loop
      vertex 4.73484 -3.68528 22.1771
      vertex 4.73484 -3.68528 1
      vertex 5.6749 -1.9482 1
    endloop
  endfacet
  facet normal 0.879474 -0.475947 0
    outer loop
      vertex 4.9041 -3.37251 22.2418
      vertex 4.73484 -3.68528 22.1771
      vertex 5.6749 -1.9482 1
    endloop
  endfacet
  facet normal 0.879474 -0.475947 0
    outer loop
      vertex 5.6749 -1.9482 22.5362
      vertex 4.9041 -3.37251 22.2418
      vertex 5.6749 -1.9482 1
    endloop
  endfacet
  facet normal 0.986361 -0.164595 0
    outer loop
      vertex 5.6749 -1.9482 22.5362
      vertex 5.6749 -1.9482 1
      vertex 6 0 1
    endloop
  endfacet
  facet normal 0.986361 -0.164595 0
    outer loop
      vertex 6 0 22.6604
      vertex 5.6749 -1.9482 22.5362
      vertex 6 0 1
    endloop
  endfacet
  facet normal 0.986361 0.164595 0
    outer loop
      vertex 6 0 1
      vertex 5.6749 1.9482 1
      vertex 5.6749 1.9482 22.5362
    endloop
  endfacet
  facet normal 0.986361 0.164595 0
    outer loop
      vertex 6 0 22.6604
      vertex 6 0 1
      vertex 5.6749 1.9482 22.5362
    endloop
  endfacet
  facet normal 0.879474 0.475947 0
    outer loop
      vertex 5.6749 1.9482 1
      vertex 4.73484 3.68528 1
      vertex 4.73484 3.68528 22.1771
    endloop
  endfacet
  facet normal 0.879474 0.475947 0
    outer loop
      vertex 5.6749 1.9482 22.5362
      vertex 5.6749 1.9482 1
      vertex 4.9041 3.37251 22.2418
    endloop
  endfacet
  facet normal 0.879474 0.475947 0
    outer loop
      vertex 4.9041 3.37251 22.2418
      vertex 5.6749 1.9482 1
      vertex 4.73484 3.68528 22.1771
    endloop
  endfacet
  facet normal 0.677282 0.735724 0
    outer loop
      vertex 3.28169 5.023 1
      vertex 3.28169 5.023 21.6221
      vertex 4.73484 3.68528 1
    endloop
  endfacet
  facet normal 0.677282 0.735724 0
    outer loop
      vertex 4.73484 3.68528 1
      vertex 3.28169 5.023 21.6221
      vertex 4.73484 3.68528 22.1771
    endloop
  endfacet
  facet normal 0.401696 0.915773 0
    outer loop
      vertex 1.47291 5.8164 1
      vertex 1.47291 5.8164 22.0974
      vertex 3.28169 5.023 1
    endloop
  endfacet
  facet normal 0.401696 0.915773 0
    outer loop
      vertex 3.28169 5.023 1
      vertex 1.47291 5.8164 22.0974
      vertex 3.2587 5.03308 21.6133
    endloop
  endfacet
  facet normal 0.401696 0.915773 0
    outer loop
      vertex 3.28169 5.023 1
      vertex 3.2587 5.03308 21.6133
      vertex 3.28169 5.023 21.6221
    endloop
  endfacet
  facet normal 0.0825792 0.996585 0
    outer loop
      vertex -0.495476 5.97951 1
      vertex -0.495476 5.97951 22.1982
      vertex 1.47291 5.8164 1
    endloop
  endfacet
  facet normal 0.0825792 0.996585 0
    outer loop
      vertex 1.47291 5.8164 1
      vertex -0.495476 5.97951 22.1982
      vertex 1.11791 5.84582 22.1156
    endloop
  endfacet
  facet normal 0.0825792 0.996585 0
    outer loop
      vertex 1.47291 5.8164 1
      vertex 1.11791 5.84582 22.1156
      vertex 1.47291 5.8164 22.0974
    endloop
  endfacet
  facet normal -0.245485 0.9694 0
    outer loop
      vertex -2.41017 5.49464 1
      vertex -2.41017 5.49464 21.8986
      vertex -0.495476 5.97951 1
    endloop
  endfacet
  facet normal -0.245485 0.9694 0
    outer loop
      vertex -0.495476 5.97951 1
      vertex -2.41017 5.49464 21.8986
      vertex -1.10957 5.824 22.1021
    endloop
  endfacet
  facet normal -0.245485 0.9694 0
    outer loop
      vertex -0.495476 5.97951 1
      vertex -1.10957 5.824 22.1021
      vertex -0.495476 5.97951 22.1982
    endloop
  endfacet
  facet normal -0.546949 0.837166 0
    outer loop
      vertex -4.06369 4.41434 1
      vertex -4.06369 4.41434 21.9208
      vertex -2.41017 5.49464 1
    endloop
  endfacet
  facet normal -0.546949 0.837166 0
    outer loop
      vertex -2.41017 5.49464 1
      vertex -4.06369 4.41434 21.9208
      vertex -3.18569 4.98797 21.5854
    endloop
  endfacet
  facet normal -0.546949 0.837166 0
    outer loop
      vertex -2.41017 5.49464 1
      vertex -3.18569 4.98797 21.5854
      vertex -2.41017 5.49464 21.8986
    endloop
  endfacet
  facet normal -0.78914 0.614213 0
    outer loop
      vertex -5.27684 2.85568 1
      vertex -5.27684 2.85568 22.3842
      vertex -4.06369 4.41434 1
    endloop
  endfacet
  facet normal -0.78914 0.614213 0
    outer loop
      vertex -4.06369 4.41434 1
      vertex -5.27684 2.85568 22.3842
      vertex -4.9041 3.33458 22.2418
    endloop
  endfacet
  facet normal -0.78914 0.614213 0
    outer loop
      vertex -4.06369 4.41434 1
      vertex -4.9041 3.33458 22.2418
      vertex -4.06369 4.41434 21.9208
    endloop
  endfacet
  facet normal -0.356822 0 -0.934172
    outer loop
      vertex -9.7582 -3.05 24.0959
      vertex -9.7582 3.05 24.0959
      vertex -4.9041 -6.05 22.2418
    endloop
  endfacet
  facet normal -0.356822 0 -0.934172
    outer loop
      vertex -4.9041 3.33458 22.2418
      vertex -9.7582 3.05 24.0959
      vertex -4.9041 6.05 22.2418
    endloop
  endfacet
  facet normal -0.356822 0 -0.934172
    outer loop
      vertex -5.27684 2.85568 22.3842
      vertex -9.7582 3.05 24.0959
      vertex -4.9041 3.33458 22.2418
    endloop
  endfacet
  facet normal -0.356822 0 -0.934172
    outer loop
      vertex -5.91817 0.987568 22.6291
      vertex -9.7582 3.05 24.0959
      vertex -5.27684 2.85568 22.3842
    endloop
  endfacet
  facet normal -0.356822 0 -0.934172
    outer loop
      vertex -5.91817 -0.987568 22.6291
      vertex -9.7582 3.05 24.0959
      vertex -5.91817 0.987568 22.6291
    endloop
  endfacet
  facet normal -0.356822 0 -0.934172
    outer loop
      vertex -4.9041 -6.05 22.2418
      vertex -9.7582 3.05 24.0959
      vertex -5.91817 -0.987568 22.6291
    endloop
  endfacet
  facet normal -0.356822 0 -0.934172
    outer loop
      vertex -4.9041 -3.33458 22.2418
      vertex -4.9041 -6.05 22.2418
      vertex -5.27684 -2.85568 22.3842
    endloop
  endfacet
  facet normal -0.356822 0 -0.934172
    outer loop
      vertex -5.27684 -2.85568 22.3842
      vertex -4.9041 -6.05 22.2418
      vertex -5.91817 -0.987568 22.6291
    endloop
  endfacet
  facet normal -0.356822 0 -0.934172
    outer loop
      vertex -4.9041 -6.05 22.2418
      vertex -4.06369 -4.41434 21.9208
      vertex -3.18569 -4.98797 21.5854
    endloop
  endfacet
  facet normal -0.356822 0 -0.934172
    outer loop
      vertex -4.9041 -6.05 22.2418
      vertex -4.9041 -3.33458 22.2418
      vertex -4.06369 -4.41434 21.9208
    endloop
  endfacet
  facet normal -6.61265e-009 -0.525731 -0.850651
    outer loop
      vertex -4.9041 -6.05 22.2418
      vertex -3.18569 -4.98797 21.5854
      vertex -3.05 -10.9041 25.2418
    endloop
  endfacet
  facet normal -6.61265e-009 -0.525731 -0.850651
    outer loop
      vertex -3.05 -10.9041 25.2418
      vertex -3.18569 -4.98797 21.5854
      vertex -2.41017 -5.49464 21.8986
    endloop
  endfacet
  facet normal -6.61265e-009 -0.525731 -0.850651
    outer loop
      vertex -3.05 -10.9041 25.2418
      vertex -2.41017 -5.49464 21.8986
      vertex -1.10957 -5.824 22.1021
    endloop
  endfacet
  facet normal 0 -0.525731 -0.850651
    outer loop
      vertex -3.05 -10.9041 25.2418
      vertex -1.10957 -5.824 22.1021
      vertex 3.05 -10.9041 25.2418
    endloop
  endfacet
  facet normal 0 -0.525731 -0.850651
    outer loop
      vertex 3.05 -10.9041 25.2418
      vertex -1.10957 -5.824 22.1021
      vertex -0.495476 -5.97951 22.1982
    endloop
  endfacet
  facet normal 0 -0.525731 -0.850651
    outer loop
      vertex 3.05 -10.9041 25.2418
      vertex -0.495476 -5.97951 22.1982
      vertex 1.11791 -5.84582 22.1156
    endloop
  endfacet
  facet normal 6.61265e-009 -0.525731 -0.850651
    outer loop
      vertex 1.11791 -5.84582 22.1156
      vertex 1.47291 -5.8164 22.0974
      vertex 3.05 -10.9041 25.2418
    endloop
  endfacet
  facet normal 6.61265e-009 -0.525731 -0.850651
    outer loop
      vertex 3.05 -10.9041 25.2418
      vertex 1.47291 -5.8164 22.0974
      vertex 3.2587 -5.03308 21.6133
    endloop
  endfacet
  facet normal 6.61265e-009 -0.525731 -0.850651
    outer loop
      vertex 3.05 -10.9041 25.2418
      vertex 3.2587 -5.03308 21.6133
      vertex 4.9041 -6.05 22.2418
    endloop
  endfacet
  facet normal 0.356822 0 -0.934172
    outer loop
      vertex 3.2587 -5.03308 21.6133
      vertex 3.28169 -5.023 21.6221
      vertex 4.9041 -6.05 22.2418
    endloop
  endfacet
  facet normal 0.356822 0 -0.934172
    outer loop
      vertex 4.9041 -6.05 22.2418
      vertex 3.28169 -5.023 21.6221
      vertex 4.73484 -3.68528 22.1771
    endloop
  endfacet
  facet normal 0.356822 0 -0.934172
    outer loop
      vertex 4.73484 -3.68528 22.1771
      vertex 4.9041 -3.37251 22.2418
      vertex 4.9041 -6.05 22.2418
    endloop
  endfacet
  facet normal 0.356822 0 -0.934172
    outer loop
      vertex 4.9041 -6.05 22.2418
      vertex 4.9041 -3.37251 22.2418
      vertex 9.7582 -3.05 24.0959
    endloop
  endfacet
  facet normal 0.356822 0 -0.934172
    outer loop
      vertex 9.7582 -3.05 24.0959
      vertex 4.9041 -3.37251 22.2418
      vertex 5.6749 -1.9482 22.5362
    endloop
  endfacet
  facet normal 0.356822 0 -0.934172
    outer loop
      vertex 9.7582 -3.05 24.0959
      vertex 5.6749 -1.9482 22.5362
      vertex 6 0 22.6604
    endloop
  endfacet
  facet normal 0.356822 0 -0.934172
    outer loop
      vertex 6 0 22.6604
      vertex 5.6749 1.9482 22.5362
      vertex 9.7582 -3.05 24.0959
    endloop
  endfacet
  facet normal 0.356822 0 -0.934172
    outer loop
      vertex 5.6749 1.9482 22.5362
      vertex 4.9041 3.37251 22.2418
      vertex 9.7582 -3.05 24.0959
    endloop
  endfacet
  facet normal 0.356822 0 -0.934172
    outer loop
      vertex 9.7582 -3.05 24.0959
      vertex 4.9041 3.37251 22.2418
      vertex 4.9041 6.05 22.2418
    endloop
  endfacet
  facet normal 0.356822 0 -0.934172
    outer loop
      vertex 9.7582 -3.05 24.0959
      vertex 4.9041 6.05 22.2418
      vertex 9.7582 3.05 24.0959
    endloop
  endfacet
  facet normal 0.356822 0 -0.934172
    outer loop
      vertex 3.2587 5.03308 21.6133
      vertex 4.9041 6.05 22.2418
      vertex 3.28169 5.023 21.6221
    endloop
  endfacet
  facet normal 0.356822 0 -0.934172
    outer loop
      vertex 4.73484 3.68528 22.1771
      vertex 4.9041 6.05 22.2418
      vertex 4.9041 3.37251 22.2418
    endloop
  endfacet
  facet normal 0.356822 0 -0.934172
    outer loop
      vertex 3.28169 5.023 21.6221
      vertex 4.9041 6.05 22.2418
      vertex 4.73484 3.68528 22.1771
    endloop
  endfacet
  facet normal 6.61265e-009 0.525731 -0.850651
    outer loop
      vertex 1.11791 5.84582 22.1156
      vertex 3.05 10.9041 25.2418
      vertex 1.47291 5.8164 22.0974
    endloop
  endfacet
  facet normal 6.61265e-009 0.525731 -0.850651
    outer loop
      vertex 1.47291 5.8164 22.0974
      vertex 3.05 10.9041 25.2418
      vertex 4.9041 6.05 22.2418
    endloop
  endfacet
  facet normal 6.61265e-009 0.525731 -0.850651
    outer loop
      vertex 1.47291 5.8164 22.0974
      vertex 4.9041 6.05 22.2418
      vertex 3.2587 5.03308 21.6133
    endloop
  endfacet
  facet normal 0 0.525731 -0.850651
    outer loop
      vertex -3.05 10.9041 25.2418
      vertex 3.05 10.9041 25.2418
      vertex -1.10957 5.824 22.1021
    endloop
  endfacet
  facet normal 0 0.525731 -0.850651
    outer loop
      vertex -0.495476 5.97951 22.1982
      vertex 3.05 10.9041 25.2418
      vertex 1.11791 5.84582 22.1156
    endloop
  endfacet
  facet normal 0 0.525731 -0.850651
    outer loop
      vertex -1.10957 5.824 22.1021
      vertex 3.05 10.9041 25.2418
      vertex -0.495476 5.97951 22.1982
    endloop
  endfacet
  facet normal -6.61265e-009 0.525731 -0.850651
    outer loop
      vertex -4.9041 6.05 22.2418
      vertex -3.05 10.9041 25.2418
      vertex -3.18569 4.98797 21.5854
    endloop
  endfacet
  facet normal -6.61265e-009 0.525731 -0.850651
    outer loop
      vertex -2.41017 5.49464 21.8986
      vertex -3.05 10.9041 25.2418
      vertex -1.10957 5.824 22.1021
    endloop
  endfacet
  facet normal -6.61265e-009 0.525731 -0.850651
    outer loop
      vertex -3.18569 4.98797 21.5854
      vertex -3.05 10.9041 25.2418
      vertex -2.41017 5.49464 21.8986
    endloop
  endfacet
  facet normal -0.356822 0 -0.934172
    outer loop
      vertex -4.9041 3.33458 22.2418
      vertex -4.9041 6.05 22.2418
      vertex -4.06369 4.41434 21.9208
    endloop
  endfacet
  facet normal -0.356822 0 -0.934172
    outer loop
      vertex -4.06369 4.41434 21.9208
      vertex -4.9041 6.05 22.2418
      vertex -3.18569 4.98797 21.5854
    endloop
  endfacet
  facet normal -0.57735 -0.57735 -0.57735
    outer loop
      vertex -10.9041 -9.7582 31.95
      vertex -12.7582 -4.9041 28.95
      vertex -9.7582 -3.05 24.0959
    endloop
  endfacet
  facet normal -0.57735 -0.57735 -0.57735
    outer loop
      vertex -3.05 -10.9041 25.2418
      vertex -10.9041 -9.7582 31.95
      vertex -4.9041 -6.05 22.2418
    endloop
  endfacet
  facet normal -0.57735 -0.57735 -0.57735
    outer loop
      vertex -4.9041 -6.05 22.2418
      vertex -10.9041 -9.7582 31.95
      vertex -9.7582 -3.05 24.0959
    endloop
  endfacet
  facet normal -0.57735 -0.57735 -0.57735
    outer loop
      vertex -6.05 -12.7582 30.0959
      vertex -10.9041 -9.7582 31.95
      vertex -3.05 -10.9041 25.2418
    endloop
  endfacet
  facet normal -0.57735 0.57735 -0.57735
    outer loop
      vertex -12.7582 4.9041 28.95
      vertex -10.9041 9.7582 31.95
      vertex -9.7582 3.05 24.0959
    endloop
  endfacet
  facet normal -0.57735 0.57735 -0.57735
    outer loop
      vertex -9.7582 3.05 24.0959
      vertex -10.9041 9.7582 31.95
      vertex -6.05 12.7582 30.0959
    endloop
  endfacet
  facet normal -0.57735 0.57735 -0.57735
    outer loop
      vertex -9.7582 3.05 24.0959
      vertex -6.05 12.7582 30.0959
      vertex -3.05 10.9041 25.2418
    endloop
  endfacet
  facet normal -0.57735 0.57735 -0.57735
    outer loop
      vertex -9.7582 3.05 24.0959
      vertex -3.05 10.9041 25.2418
      vertex -4.9041 6.05 22.2418
    endloop
  endfacet
  facet normal -0.850651 0 -0.525731
    outer loop
      vertex -14.6123 -0.05 31.95
      vertex -14.6123 0.05 31.95
      vertex -9.7582 -3.05 24.0959
    endloop
  endfacet
  facet normal -0.850651 0 -0.525731
    outer loop
      vertex -9.7582 -3.05 24.0959
      vertex -14.6123 0.05 31.95
      vertex -9.7582 3.05 24.0959
    endloop
  endfacet
  facet normal -0.850651 6.61265e-009 -0.525731
    outer loop
      vertex -9.7582 3.05 24.0959
      vertex -14.6123 0.05 31.95
      vertex -12.7582 4.9041 28.95
    endloop
  endfacet
  facet normal -0.850651 -6.61265e-009 -0.525731
    outer loop
      vertex -12.7582 -4.9041 28.95
      vertex -14.6123 -0.05 31.95
      vertex -9.7582 -3.05 24.0959
    endloop
  endfacet
  facet normal 0 -0.934172 -0.356822
    outer loop
      vertex 6.05 -12.7582 30.0959
      vertex -6.05 -12.7582 30.0959
      vertex -3.05 -10.9041 25.2418
    endloop
  endfacet
  facet normal 0 -0.934172 -0.356822
    outer loop
      vertex 3.05 -10.9041 25.2418
      vertex 6.05 -12.7582 30.0959
      vertex -3.05 -10.9041 25.2418
    endloop
  endfacet
  facet normal 0.57735 -0.57735 -0.57735
    outer loop
      vertex 6.05 -12.7582 30.0959
      vertex 3.05 -10.9041 25.2418
      vertex 4.9041 -6.05 22.2418
    endloop
  endfacet
  facet normal 0.57735 -0.57735 -0.57735
    outer loop
      vertex 12.7582 -4.9041 28.95
      vertex 6.05 -12.7582 30.0959
      vertex 9.7582 -3.05 24.0959
    endloop
  endfacet
  facet normal 0.57735 -0.57735 -0.57735
    outer loop
      vertex 9.7582 -3.05 24.0959
      vertex 6.05 -12.7582 30.0959
      vertex 4.9041 -6.05 22.2418
    endloop
  endfacet
  facet normal 0.57735 -0.57735 -0.57735
    outer loop
      vertex 10.9041 -9.7582 31.95
      vertex 6.05 -12.7582 30.0959
      vertex 12.7582 -4.9041 28.95
    endloop
  endfacet
  facet normal 0.850651 0 -0.525731
    outer loop
      vertex 14.6123 -0.05 31.95
      vertex 9.7582 -3.05 24.0959
      vertex 9.7582 3.05 24.0959
    endloop
  endfacet
  facet normal 0.850651 0 -0.525731
    outer loop
      vertex 14.6123 0.05 31.95
      vertex 14.6123 -0.05 31.95
      vertex 9.7582 3.05 24.0959
    endloop
  endfacet
  facet normal 0.850651 -6.61265e-009 -0.525731
    outer loop
      vertex 12.7582 -4.9041 28.95
      vertex 9.7582 -3.05 24.0959
      vertex 14.6123 -0.05 31.95
    endloop
  endfacet
  facet normal 0.57735 0.57735 -0.57735
    outer loop
      vertex 3.05 10.9041 25.2418
      vertex 6.05 12.7582 30.0959
      vertex 4.9041 6.05 22.2418
    endloop
  endfacet
  facet normal 0.57735 0.57735 -0.57735
    outer loop
      vertex 4.9041 6.05 22.2418
      vertex 6.05 12.7582 30.0959
      vertex 10.9041 9.7582 31.95
    endloop
  endfacet
  facet normal 0.57735 0.57735 -0.57735
    outer loop
      vertex 4.9041 6.05 22.2418
      vertex 10.9041 9.7582 31.95
      vertex 12.7582 4.9041 28.95
    endloop
  endfacet
  facet normal 0.57735 0.57735 -0.57735
    outer loop
      vertex 4.9041 6.05 22.2418
      vertex 12.7582 4.9041 28.95
      vertex 9.7582 3.05 24.0959
    endloop
  endfacet
  facet normal 0.850651 6.61265e-009 -0.525731
    outer loop
      vertex 14.6123 0.05 31.95
      vertex 9.7582 3.05 24.0959
      vertex 12.7582 4.9041 28.95
    endloop
  endfacet
  facet normal 0 0.934172 -0.356822
    outer loop
      vertex -6.05 12.7582 30.0959
      vertex 6.05 12.7582 30.0959
      vertex -3.05 10.9041 25.2418
    endloop
  endfacet
  facet normal 0 0.934172 -0.356822
    outer loop
      vertex -3.05 10.9041 25.2418
      vertex 6.05 12.7582 30.0959
      vertex 3.05 10.9041 25.2418
    endloop
  endfacet
  facet normal -0.934172 -0.356822 0
    outer loop
      vertex -12.7582 -4.9041 28.95
      vertex -10.9041 -9.7582 31.95
      vertex -12.7582 -4.9041 41.05
    endloop
  endfacet
  facet normal -0.934172 -0.356822 0
    outer loop
      vertex -12.7582 -4.9041 41.05
      vertex -10.9041 -9.7582 31.95
      vertex -10.9041 -9.7582 38.05
    endloop
  endfacet
  facet normal -0.525731 -0.850651 0
    outer loop
      vertex -10.9041 -9.7582 38.05
      vertex -10.9041 -9.7582 31.95
      vertex -3.05 -14.6123 34.95
    endloop
  endfacet
  facet normal -0.525731 -0.850651 0
    outer loop
      vertex -3.05 -14.6123 35.05
      vertex -10.9041 -9.7582 38.05
      vertex -3.05 -14.6123 34.95
    endloop
  endfacet
  facet normal -0.525731 -0.850651 -6.61265e-009
    outer loop
      vertex -3.05 -14.6123 34.95
      vertex -10.9041 -9.7582 31.95
      vertex -6.05 -12.7582 30.0959
    endloop
  endfacet
  facet normal 0 -0.934172 -0.356822
    outer loop
      vertex -3.05 -14.6123 34.95
      vertex -6.05 -12.7582 30.0959
      vertex 6.05 -12.7582 30.0959
    endloop
  endfacet
  facet normal 0 -0.934172 -0.356822
    outer loop
      vertex 3.05 -14.6123 34.95
      vertex -3.05 -14.6123 34.95
      vertex 6.05 -12.7582 30.0959
    endloop
  endfacet
  facet normal -0.934172 -0.356822 0
    outer loop
      vertex -14.6123 -0.05 31.95
      vertex -12.7582 -4.9041 28.95
      vertex -14.6123 -0.05 38.05
    endloop
  endfacet
  facet normal -0.934172 -0.356822 0
    outer loop
      vertex -14.6123 -0.05 38.05
      vertex -12.7582 -4.9041 28.95
      vertex -12.7582 -4.9041 41.05
    endloop
  endfacet
  facet normal -0.525731 0.850651 -6.61265e-009
    outer loop
      vertex -6.05 12.7582 30.0959
      vertex -10.9041 9.7582 31.95
      vertex -3.05 14.6123 34.95
    endloop
  endfacet
  facet normal 0 0.934172 -0.356822
    outer loop
      vertex -6.05 12.7582 30.0959
      vertex -3.05 14.6123 34.95
      vertex 6.05 12.7582 30.0959
    endloop
  endfacet
  facet normal 0 0.934172 -0.356822
    outer loop
      vertex 6.05 12.7582 30.0959
      vertex -3.05 14.6123 34.95
      vertex 3.05 14.6123 34.95
    endloop
  endfacet
  facet normal -0.934172 0.356822 0
    outer loop
      vertex -12.7582 4.9041 28.95
      vertex -12.7582 4.9041 41.05
      vertex -10.9041 9.7582 31.95
    endloop
  endfacet
  facet normal -0.934172 0.356822 0
    outer loop
      vertex -10.9041 9.7582 31.95
      vertex -12.7582 4.9041 41.05
      vertex -10.9041 9.7582 38.05
    endloop
  endfacet
  facet normal -0.525731 0.850651 0
    outer loop
      vertex -10.9041 9.7582 31.95
      vertex -10.9041 9.7582 38.05
      vertex -3.05 14.6123 34.95
    endloop
  endfacet
  facet normal -0.525731 0.850651 0
    outer loop
      vertex -3.05 14.6123 34.95
      vertex -10.9041 9.7582 38.05
      vertex -3.05 14.6123 35.05
    endloop
  endfacet
  facet normal -0.934172 0.356822 0
    outer loop
      vertex -14.6123 0.05 31.95
      vertex -14.6123 0.05 38.05
      vertex -12.7582 4.9041 28.95
    endloop
  endfacet
  facet normal -0.934172 0.356822 0
    outer loop
      vertex -12.7582 4.9041 28.95
      vertex -14.6123 0.05 38.05
      vertex -12.7582 4.9041 41.05
    endloop
  endfacet
  facet normal -1 0 0
    outer loop
      vertex -14.6123 -0.05 31.95
      vertex -14.6123 -0.05 38.05
      vertex -14.6123 0.05 31.95
    endloop
  endfacet
  facet normal -1 0 0
    outer loop
      vertex -14.6123 0.05 31.95
      vertex -14.6123 -0.05 38.05
      vertex -14.6123 0.05 38.05
    endloop
  endfacet
  facet normal 0.525731 -0.850651 -6.61265e-009
    outer loop
      vertex 10.9041 -9.7582 31.95
      vertex 3.05 -14.6123 34.95
      vertex 6.05 -12.7582 30.0959
    endloop
  endfacet
  facet normal 0.525731 -0.850651 0
    outer loop
      vertex 3.05 -14.6123 35.05
      vertex 3.05 -14.6123 34.95
      vertex 10.9041 -9.7582 31.95
    endloop
  endfacet
  facet normal 0.525731 -0.850651 0
    outer loop
      vertex 10.9041 -9.7582 38.05
      vertex 3.05 -14.6123 35.05
      vertex 10.9041 -9.7582 31.95
    endloop
  endfacet
  facet normal 0.934172 -0.356822 0
    outer loop
      vertex 10.9041 -9.7582 38.05
      vertex 10.9041 -9.7582 31.95
      vertex 12.7582 -4.9041 28.95
    endloop
  endfacet
  facet normal 0.934172 -0.356822 0
    outer loop
      vertex 12.7582 -4.9041 41.05
      vertex 10.9041 -9.7582 38.05
      vertex 12.7582 -4.9041 28.95
    endloop
  endfacet
  facet normal 0.934172 -0.356822 0
    outer loop
      vertex 12.7582 -4.9041 41.05
      vertex 12.7582 -4.9041 28.95
      vertex 14.6123 -0.05 31.95
    endloop
  endfacet
  facet normal 0.934172 -0.356822 0
    outer loop
      vertex 14.6123 -0.05 38.05
      vertex 12.7582 -4.9041 41.05
      vertex 14.6123 -0.05 31.95
    endloop
  endfacet
  facet normal 1 0 0
    outer loop
      vertex 14.6123 -0.05 38.05
      vertex 14.6123 -0.05 31.95
      vertex 14.6123 0.05 31.95
    endloop
  endfacet
  facet normal 1 0 0
    outer loop
      vertex 14.6123 0.05 38.05
      vertex 14.6123 -0.05 38.05
      vertex 14.6123 0.05 31.95
    endloop
  endfacet
  facet normal 0.934172 0.356822 0
    outer loop
      vertex 14.6123 0.05 31.95
      vertex 12.7582 4.9041 28.95
      vertex 12.7582 4.9041 41.05
    endloop
  endfacet
  facet normal 0.934172 0.356822 0
    outer loop
      vertex 14.6123 0.05 38.05
      vertex 14.6123 0.05 31.95
      vertex 12.7582 4.9041 41.05
    endloop
  endfacet
  facet normal 0.934172 0.356822 0
    outer loop
      vertex 12.7582 4.9041 28.95
      vertex 10.9041 9.7582 31.95
      vertex 10.9041 9.7582 38.05
    endloop
  endfacet
  facet normal 0.934172 0.356822 0
    outer loop
      vertex 12.7582 4.9041 41.05
      vertex 12.7582 4.9041 28.95
      vertex 10.9041 9.7582 38.05
    endloop
  endfacet
  facet normal 0.525731 0.850651 0
    outer loop
      vertex 3.05 14.6123 34.95
      vertex 3.05 14.6123 35.05
      vertex 10.9041 9.7582 31.95
    endloop
  endfacet
  facet normal 0.525731 0.850651 0
    outer loop
      vertex 10.9041 9.7582 31.95
      vertex 3.05 14.6123 35.05
      vertex 10.9041 9.7582 38.05
    endloop
  endfacet
  facet normal 0.525731 0.850651 -6.61265e-009
    outer loop
      vertex 6.05 12.7582 30.0959
      vertex 3.05 14.6123 34.95
      vertex 10.9041 9.7582 31.95
    endloop
  endfacet
  facet normal -0.850651 -6.61265e-009 0.525731
    outer loop
      vertex -9.7582 -3.05 45.9041
      vertex -14.6123 -0.05 38.05
      vertex -12.7582 -4.9041 41.05
    endloop
  endfacet
  facet normal -0.57735 -0.57735 0.57735
    outer loop
      vertex -9.7582 -3.05 45.9041
      vertex -12.7582 -4.9041 41.05
      vertex -10.9041 -9.7582 38.05
    endloop
  endfacet
  facet normal -0.57735 -0.57735 0.57735
    outer loop
      vertex -3.05 -10.9041 44.7582
      vertex -9.7582 -3.05 45.9041
      vertex -6.05 -12.7582 39.9041
    endloop
  endfacet
  facet normal -0.57735 -0.57735 0.57735
    outer loop
      vertex -6.05 -12.7582 39.9041
      vertex -9.7582 -3.05 45.9041
      vertex -10.9041 -9.7582 38.05
    endloop
  endfacet
  facet normal -0.57735 -0.57735 0.57735
    outer loop
      vertex -4.9041 -6.05 47.7582
      vertex -9.7582 -3.05 45.9041
      vertex -3.05 -10.9041 44.7582
    endloop
  endfacet
  facet normal -0.525731 -0.850651 6.61265e-009
    outer loop
      vertex -6.05 -12.7582 39.9041
      vertex -10.9041 -9.7582 38.05
      vertex -3.05 -14.6123 35.05
    endloop
  endfacet
  facet normal 0 -0.934172 0.356822
    outer loop
      vertex 6.05 -12.7582 39.9041
      vertex -6.05 -12.7582 39.9041
      vertex -3.05 -14.6123 35.05
    endloop
  endfacet
  facet normal 0 -0.934172 0.356822
    outer loop
      vertex 3.05 -14.6123 35.05
      vertex 6.05 -12.7582 39.9041
      vertex -3.05 -14.6123 35.05
    endloop
  endfacet
  facet normal 0 -1 0
    outer loop
      vertex -3.05 -14.6123 35.05
      vertex -3.05 -14.6123 34.95
      vertex 3.05 -14.6123 34.95
    endloop
  endfacet
  facet normal 0 -1 0
    outer loop
      vertex 3.05 -14.6123 35.05
      vertex -3.05 -14.6123 35.05
      vertex 3.05 -14.6123 34.95
    endloop
  endfacet
  facet normal -0.850651 0 0.525731
    outer loop
      vertex -14.6123 -0.05 38.05
      vertex -9.7582 -3.05 45.9041
      vertex -14.6123 0.05 38.05
    endloop
  endfacet
  facet normal -0.850651 0 0.525731
    outer loop
      vertex -14.6123 0.05 38.05
      vertex -9.7582 -3.05 45.9041
      vertex -9.7582 3.05 45.9041
    endloop
  endfacet
  facet normal 0 1 0
    outer loop
      vertex -3.05 14.6123 34.95
      vertex -3.05 14.6123 35.05
      vertex 3.05 14.6123 34.95
    endloop
  endfacet
  facet normal 0 1 0
    outer loop
      vertex 3.05 14.6123 34.95
      vertex -3.05 14.6123 35.05
      vertex 3.05 14.6123 35.05
    endloop
  endfacet
  facet normal -0.57735 0.57735 0.57735
    outer loop
      vertex -12.7582 4.9041 41.05
      vertex -9.7582 3.05 45.9041
      vertex -10.9041 9.7582 38.05
    endloop
  endfacet
  facet normal -0.57735 0.57735 0.57735
    outer loop
      vertex -10.9041 9.7582 38.05
      vertex -9.7582 3.05 45.9041
      vertex -4.9041 6.05 47.7582
    endloop
  endfacet
  facet normal -0.57735 0.57735 0.57735
    outer loop
      vertex -10.9041 9.7582 38.05
      vertex -4.9041 6.05 47.7582
      vertex -3.05 10.9041 44.7582
    endloop
  endfacet
  facet normal -0.57735 0.57735 0.57735
    outer loop
      vertex -10.9041 9.7582 38.05
      vertex -3.05 10.9041 44.7582
      vertex -6.05 12.7582 39.9041
    endloop
  endfacet
  facet normal -0.525731 0.850651 6.61265e-009
    outer loop
      vertex -3.05 14.6123 35.05
      vertex -10.9041 9.7582 38.05
      vertex -6.05 12.7582 39.9041
    endloop
  endfacet
  facet normal -0.850651 6.61265e-009 0.525731
    outer loop
      vertex -12.7582 4.9041 41.05
      vertex -14.6123 0.05 38.05
      vertex -9.7582 3.05 45.9041
    endloop
  endfacet
  facet normal 0 0.934172 0.356822
    outer loop
      vertex -6.05 12.7582 39.9041
      vertex 6.05 12.7582 39.9041
      vertex -3.05 14.6123 35.05
    endloop
  endfacet
  facet normal 0 0.934172 0.356822
    outer loop
      vertex -3.05 14.6123 35.05
      vertex 6.05 12.7582 39.9041
      vertex 3.05 14.6123 35.05
    endloop
  endfacet
  facet normal 0.525731 -0.850651 6.61265e-009
    outer loop
      vertex 6.05 -12.7582 39.9041
      vertex 3.05 -14.6123 35.05
      vertex 10.9041 -9.7582 38.05
    endloop
  endfacet
  facet normal 0.57735 -0.57735 0.57735
    outer loop
      vertex 4.9041 -6.05 47.7582
      vertex 3.05 -10.9041 44.7582
      vertex 6.05 -12.7582 39.9041
    endloop
  endfacet
  facet normal 0.57735 -0.57735 0.57735
    outer loop
      vertex 12.7582 -4.9041 41.05
      vertex 4.9041 -6.05 47.7582
      vertex 10.9041 -9.7582 38.05
    endloop
  endfacet
  facet normal 0.57735 -0.57735 0.57735
    outer loop
      vertex 10.9041 -9.7582 38.05
      vertex 4.9041 -6.05 47.7582
      vertex 6.05 -12.7582 39.9041
    endloop
  endfacet
  facet normal 0.57735 -0.57735 0.57735
    outer loop
      vertex 9.7582 -3.05 45.9041
      vertex 4.9041 -6.05 47.7582
      vertex 12.7582 -4.9041 41.05
    endloop
  endfacet
  facet normal 0.850651 -6.61265e-009 0.525731
    outer loop
      vertex 14.6123 -0.05 38.05
      vertex 9.7582 -3.05 45.9041
      vertex 12.7582 -4.9041 41.05
    endloop
  endfacet
  facet normal 0.850651 0 0.525731
    outer loop
      vertex 9.7582 3.05 45.9041
      vertex 9.7582 -3.05 45.9041
      vertex 14.6123 -0.05 38.05
    endloop
  endfacet
  facet normal 0.850651 0 0.525731
    outer loop
      vertex 14.6123 0.05 38.05
      vertex 9.7582 3.05 45.9041
      vertex 14.6123 -0.05 38.05
    endloop
  endfacet
  facet normal 0.850651 6.61265e-009 0.525731
    outer loop
      vertex 12.7582 4.9041 41.05
      vertex 9.7582 3.05 45.9041
      vertex 14.6123 0.05 38.05
    endloop
  endfacet
  facet normal 0.57735 0.57735 0.57735
    outer loop
      vertex 3.05 10.9041 44.7582
      vertex 4.9041 6.05 47.7582
      vertex 6.05 12.7582 39.9041
    endloop
  endfacet
  facet normal 0.57735 0.57735 0.57735
    outer loop
      vertex 6.05 12.7582 39.9041
      vertex 4.9041 6.05 47.7582
      vertex 9.7582 3.05 45.9041
    endloop
  endfacet
  facet normal 0.57735 0.57735 0.57735
    outer loop
      vertex 6.05 12.7582 39.9041
      vertex 9.7582 3.05 45.9041
      vertex 12.7582 4.9041 41.05
    endloop
  endfacet
  facet normal 0.57735 0.57735 0.57735
    outer loop
      vertex 6.05 12.7582 39.9041
      vertex 12.7582 4.9041 41.05
      vertex 10.9041 9.7582 38.05
    endloop
  endfacet
  facet normal 0.525731 0.850651 6.61265e-009
    outer loop
      vertex 10.9041 9.7582 38.05
      vertex 3.05 14.6123 35.05
      vertex 6.05 12.7582 39.9041
    endloop
  endfacet
  facet normal -0.356822 0 0.934172
    outer loop
      vertex -9.7582 3.05 45.9041
      vertex -9.7582 -3.05 45.9041
      vertex -4.9041 -6.05 47.7582
    endloop
  endfacet
  facet normal -0.356822 0 0.934172
    outer loop
      vertex -4.9041 6.05 47.7582
      vertex -9.7582 3.05 45.9041
      vertex -4.9041 -6.05 47.7582
    endloop
  endfacet
  facet normal -6.61265e-009 -0.525731 0.850651
    outer loop
      vertex -0.05 -3.05 49.6123
      vertex -4.9041 -6.05 47.7582
      vertex -3.05 -10.9041 44.7582
    endloop
  endfacet
  facet normal -0.356822 0 0.934172
    outer loop
      vertex -4.9041 6.05 47.7582
      vertex -4.9041 -6.05 47.7582
      vertex -0.05 -3.05 49.6123
    endloop
  endfacet
  facet normal -0.356822 0 0.934172
    outer loop
      vertex -0.05 3.05 49.6123
      vertex -4.9041 6.05 47.7582
      vertex -0.05 -3.05 49.6123
    endloop
  endfacet
  facet normal 0 -0.525731 0.850651
    outer loop
      vertex -0.05 -3.05 49.6123
      vertex -3.05 -10.9041 44.7582
      vertex 3.05 -10.9041 44.7582
    endloop
  endfacet
  facet normal 0 -0.525731 0.850651
    outer loop
      vertex 0.05 -3.05 49.6123
      vertex -0.05 -3.05 49.6123
      vertex 3.05 -10.9041 44.7582
    endloop
  endfacet
  facet normal 0 -0.934172 0.356822
    outer loop
      vertex -3.05 -10.9041 44.7582
      vertex -6.05 -12.7582 39.9041
      vertex 6.05 -12.7582 39.9041
    endloop
  endfacet
  facet normal 0 -0.934172 0.356822
    outer loop
      vertex 3.05 -10.9041 44.7582
      vertex -3.05 -10.9041 44.7582
      vertex 6.05 -12.7582 39.9041
    endloop
  endfacet
  facet normal 0 0.934172 0.356822
    outer loop
      vertex -6.05 12.7582 39.9041
      vertex -3.05 10.9041 44.7582
      vertex 6.05 12.7582 39.9041
    endloop
  endfacet
  facet normal 0 0.934172 0.356822
    outer loop
      vertex 6.05 12.7582 39.9041
      vertex -3.05 10.9041 44.7582
      vertex 3.05 10.9041 44.7582
    endloop
  endfacet
  facet normal 0 0.525731 0.850651
    outer loop
      vertex 3.05 10.9041 44.7582
      vertex -3.05 10.9041 44.7582
      vertex -0.05 3.05 49.6123
    endloop
  endfacet
  facet normal 0 0.525731 0.850651
    outer loop
      vertex 0.05 3.05 49.6123
      vertex 3.05 10.9041 44.7582
      vertex -0.05 3.05 49.6123
    endloop
  endfacet
  facet normal -6.61265e-009 0.525731 0.850651
    outer loop
      vertex -3.05 10.9041 44.7582
      vertex -4.9041 6.05 47.7582
      vertex -0.05 3.05 49.6123
    endloop
  endfacet
  facet normal 0.356822 0 0.934172
    outer loop
      vertex 0.05 3.05 49.6123
      vertex 0.05 -3.05 49.6123
      vertex 4.9041 -6.05 47.7582
    endloop
  endfacet
  facet normal 0.356822 0 0.934172
    outer loop
      vertex 4.9041 6.05 47.7582
      vertex 0.05 3.05 49.6123
      vertex 4.9041 -6.05 47.7582
    endloop
  endfacet
  facet normal 0.356822 0 0.934172
    outer loop
      vertex 4.9041 6.05 47.7582
      vertex 4.9041 -6.05 47.7582
      vertex 9.7582 -3.05 45.9041
    endloop
  endfacet
  facet normal 0.356822 0 0.934172
    outer loop
      vertex 9.7582 3.05 45.9041
      vertex 4.9041 6.05 47.7582
      vertex 9.7582 -3.05 45.9041
    endloop
  endfacet
  facet normal 6.61265e-009 -0.525731 0.850651
    outer loop
      vertex 4.9041 -6.05 47.7582
      vertex 0.05 -3.05 49.6123
      vertex 3.05 -10.9041 44.7582
    endloop
  endfacet
  facet normal 6.61265e-009 0.525731 0.850651
    outer loop
      vertex 3.05 10.9041 44.7582
      vertex 0.05 3.05 49.6123
      vertex 4.9041 6.05 47.7582
    endloop
  endfacet
  facet normal 0 0 1
    outer loop
      vertex -0.05 3.05 49.6123
      vertex -0.05 -3.05 49.6123
      vertex 0.05 -3.05 49.6123
    endloop
  endfacet
  facet normal 0 0 1
    outer loop
      vertex 0.05 3.05 49.6123
      vertex -0.05 3.05 49.6123
      vertex 0.05 -3.05 49.6123
    endloop
  endfacet
  facet normal -1 0 0
    outer loop
      vertex -14.1269 -0.05 32.05
      vertex -14.1269 -0.05 37.95
      vertex -14.1269 0.05 32.05
    endloop
  endfacet
  facet normal -1 0 0
    outer loop
      vertex -14.1269 0.05 32.05
      vertex -14.1269 -0.05 37.95
      vertex -14.1269 0.05 37.95
    endloop
  endfacet
  facet normal -0.934172 -0.356822 0
    outer loop
      vertex -14.1269 -0.05 32.05
      vertex -10.5423 -9.4346 32.05
      vertex -14.1269 -0.05 37.95
    endloop
  endfacet
  facet normal -0.934172 -0.356822 0
    outer loop
      vertex -14.1269 -0.05 37.95
      vertex -10.5423 -9.4346 32.05
      vertex -10.5423 -9.4346 37.95
    endloop
  endfacet
  facet normal -0.934172 -0.356822 -9.95432e-008
    outer loop
      vertex -10.5423 -9.4346 32.05
      vertex -14.1269 -0.05 32.05
      vertex -12.3346 -4.7423 29.15
    endloop
  endfacet
  facet normal -0.850651 -8.76865e-008 -0.525731
    outer loop
      vertex -12.3346 -4.7423 29.15
      vertex -14.1269 -0.05 32.05
      vertex -9.4346 -2.95 24.4577
    endloop
  endfacet
  facet normal -0.850651 0 -0.525731
    outer loop
      vertex -14.1269 -0.05 32.05
      vertex -14.1269 0.05 32.05
      vertex -9.4346 -2.95 24.4577
    endloop
  endfacet
  facet normal -0.850651 0 -0.525731
    outer loop
      vertex -9.4346 -2.95 24.4577
      vertex -14.1269 0.05 32.05
      vertex -9.4346 2.95 24.4577
    endloop
  endfacet
  facet normal -0.934172 0.356822 0
    outer loop
      vertex -14.1269 0.05 32.05
      vertex -14.1269 0.05 37.95
      vertex -10.5423 9.4346 32.05
    endloop
  endfacet
  facet normal -0.934172 0.356822 0
    outer loop
      vertex -10.5423 9.4346 32.05
      vertex -14.1269 0.05 37.95
      vertex -10.5423 9.4346 37.95
    endloop
  endfacet
  facet normal -0.850651 8.76865e-008 -0.525731
    outer loop
      vertex -9.4346 2.95 24.4577
      vertex -14.1269 0.05 32.05
      vertex -12.3346 4.7423 29.15
    endloop
  endfacet
  facet normal -0.934172 0.356822 -9.95432e-008
    outer loop
      vertex -12.3346 4.7423 29.15
      vertex -14.1269 0.05 32.05
      vertex -10.5423 9.4346 32.05
    endloop
  endfacet
  facet normal -0.850651 8.76865e-008 0.525731
    outer loop
      vertex -12.3346 4.7423 40.85
      vertex -14.1269 0.05 37.95
      vertex -9.4346 2.95 45.5423
    endloop
  endfacet
  facet normal -0.850651 0 0.525731
    outer loop
      vertex -14.1269 -0.05 37.95
      vertex -9.4346 -2.95 45.5423
      vertex -14.1269 0.05 37.95
    endloop
  endfacet
  facet normal -0.850651 0 0.525731
    outer loop
      vertex -14.1269 0.05 37.95
      vertex -9.4346 -2.95 45.5423
      vertex -9.4346 2.95 45.5423
    endloop
  endfacet
  facet normal -0.934172 0.356822 9.95432e-008
    outer loop
      vertex -10.5423 9.4346 37.95
      vertex -14.1269 0.05 37.95
      vertex -12.3346 4.7423 40.85
    endloop
  endfacet
  facet normal -0.850651 -8.76865e-008 0.525731
    outer loop
      vertex -9.4346 -2.95 45.5423
      vertex -14.1269 -0.05 37.95
      vertex -12.3346 -4.7423 40.85
    endloop
  endfacet
  facet normal -0.934172 -0.356822 9.95432e-008
    outer loop
      vertex -12.3346 -4.7423 40.85
      vertex -14.1269 -0.05 37.95
      vertex -10.5423 -9.4346 37.95
    endloop
  endfacet
  facet normal -0.57735 -0.57735 0.57735
    outer loop
      vertex -9.4346 -2.95 45.5423
      vertex -12.3346 -4.7423 40.85
      vertex -10.5423 -9.4346 37.95
    endloop
  endfacet
  facet normal -0.57735 -0.57735 0.57735
    outer loop
      vertex -9.4346 -2.95 45.5423
      vertex -10.5423 -9.4346 37.95
      vertex -2.95 -10.5423 44.4346
    endloop
  endfacet
  facet normal -0.57735 -0.57735 0.57735
    outer loop
      vertex -2.95 -10.5423 44.4346
      vertex -10.5423 -9.4346 37.95
      vertex -5.85 -12.3346 39.7423
    endloop
  endfacet
  facet normal -0.525731 -0.850651 8.76865e-008
    outer loop
      vertex -5.85 -12.3346 39.7423
      vertex -10.5423 -9.4346 37.95
      vertex -2.95 -14.1269 35.05
    endloop
  endfacet
  facet normal -0.525731 -0.850651 0
    outer loop
      vertex -10.5423 -9.4346 37.95
      vertex -10.5423 -9.4346 32.05
      vertex -2.95 -14.1269 34.95
    endloop
  endfacet
  facet normal -0.525731 -0.850651 0
    outer loop
      vertex -2.95 -14.1269 35.05
      vertex -10.5423 -9.4346 37.95
      vertex -2.95 -14.1269 34.95
    endloop
  endfacet
  facet normal -0.57735 -0.57735 -0.57735
    outer loop
      vertex -5.85 -12.3346 30.2577
      vertex -10.5423 -9.4346 32.05
      vertex -2.95 -10.5423 25.5654
    endloop
  endfacet
  facet normal -0.57735 -0.57735 -0.57735
    outer loop
      vertex -2.95 -10.5423 25.5654
      vertex -10.5423 -9.4346 32.05
      vertex -9.4346 -2.95 24.4577
    endloop
  endfacet
  facet normal -0.57735 -0.57735 -0.57735
    outer loop
      vertex -10.5423 -9.4346 32.05
      vertex -12.3346 -4.7423 29.15
      vertex -9.4346 -2.95 24.4577
    endloop
  endfacet
  facet normal -0.525731 -0.850651 -8.76865e-008
    outer loop
      vertex -2.95 -14.1269 34.95
      vertex -10.5423 -9.4346 32.05
      vertex -5.85 -12.3346 30.2577
    endloop
  endfacet
  facet normal -0.356822 0 -0.934172
    outer loop
      vertex -9.4346 -2.95 24.4577
      vertex -9.4346 2.95 24.4577
      vertex -3.92678 -2.95 22.3539
    endloop
  endfacet
  facet normal -0.356822 0 -0.934172
    outer loop
      vertex -4.6194 1.91342 22.6185
      vertex -9.4346 2.95 24.4577
      vertex -3.92678 2.95 22.3539
    endloop
  endfacet
  facet normal -0.356822 0 -0.934172
    outer loop
      vertex -5 0 22.7638
      vertex -9.4346 2.95 24.4577
      vertex -4.6194 1.91342 22.6185
    endloop
  endfacet
  facet normal -0.356822 0 -0.934172
    outer loop
      vertex -4.6194 -1.91342 22.6185
      vertex -9.4346 2.95 24.4577
      vertex -5 0 22.7638
    endloop
  endfacet
  facet normal -0.356822 0 -0.934172
    outer loop
      vertex -3.92678 -2.95 22.3539
      vertex -9.4346 2.95 24.4577
      vertex -4.6194 -1.91342 22.6185
    endloop
  endfacet
  facet normal -0.57735 -0.57735 -0.57735
    outer loop
      vertex -2.95 -10.5423 25.5654
      vertex -9.4346 -2.95 24.4577
      vertex -4.7423 -5.85 22.6654
    endloop
  endfacet
  facet normal -0.356822 -9.95432e-008 -0.934172
    outer loop
      vertex -9.4346 -2.95 24.4577
      vertex -3.92678 -2.95 22.3539
      vertex -4.7423 -5.85 22.6654
    endloop
  endfacet
  facet normal -0.356822 -9.95432e-008 -0.934172
    outer loop
      vertex -4.7423 -5.85 22.6654
      vertex -3.92678 -2.95 22.3539
      vertex -3.53553 -3.53553 22.2045
    endloop
  endfacet
  facet normal -0.356822 -9.95432e-008 -0.934172
    outer loop
      vertex -4.7423 -5.85 22.6654
      vertex -3.53553 -3.53553 22.2045
      vertex -2.31595 -4.35043 21.7386
    endloop
  endfacet
  facet normal -0.57735 0.57735 -0.57735
    outer loop
      vertex -9.4346 2.95 24.4577
      vertex -12.3346 4.7423 29.15
      vertex -10.5423 9.4346 32.05
    endloop
  endfacet
  facet normal -0.356822 9.95432e-008 -0.934172
    outer loop
      vertex -9.4346 2.95 24.4577
      vertex -4.7423 5.85 22.6654
      vertex -3.92678 2.95 22.3539
    endloop
  endfacet
  facet normal -0.356822 9.95432e-008 -0.934172
    outer loop
      vertex -3.53553 3.53553 22.2045
      vertex -4.7423 5.85 22.6654
      vertex -2.31595 4.35043 21.7386
    endloop
  endfacet
  facet normal -0.356822 9.95432e-008 -0.934172
    outer loop
      vertex -3.92678 2.95 22.3539
      vertex -4.7423 5.85 22.6654
      vertex -3.53553 3.53553 22.2045
    endloop
  endfacet
  facet normal -0.57735 0.57735 -0.57735
    outer loop
      vertex -4.7423 5.85 22.6654
      vertex -9.4346 2.95 24.4577
      vertex -2.95 10.5423 25.5654
    endloop
  endfacet
  facet normal -0.57735 0.57735 -0.57735
    outer loop
      vertex -9.4346 2.95 24.4577
      vertex -10.5423 9.4346 32.05
      vertex -2.95 10.5423 25.5654
    endloop
  endfacet
  facet normal -0.57735 0.57735 -0.57735
    outer loop
      vertex -2.95 10.5423 25.5654
      vertex -10.5423 9.4346 32.05
      vertex -5.85 12.3346 30.2577
    endloop
  endfacet
  facet normal -0.525731 0.850651 -8.76865e-008
    outer loop
      vertex -5.85 12.3346 30.2577
      vertex -10.5423 9.4346 32.05
      vertex -2.95 14.1269 34.95
    endloop
  endfacet
  facet normal -0.525731 0.850651 0
    outer loop
      vertex -10.5423 9.4346 32.05
      vertex -10.5423 9.4346 37.95
      vertex -2.95 14.1269 34.95
    endloop
  endfacet
  facet normal -0.525731 0.850651 0
    outer loop
      vertex -2.95 14.1269 34.95
      vertex -10.5423 9.4346 37.95
      vertex -2.95 14.1269 35.05
    endloop
  endfacet
  facet normal -0.57735 0.57735 0.57735
    outer loop
      vertex -10.5423 9.4346 37.95
      vertex -12.3346 4.7423 40.85
      vertex -9.4346 2.95 45.5423
    endloop
  endfacet
  facet normal -0.525731 0.850651 8.76865e-008
    outer loop
      vertex -2.95 14.1269 35.05
      vertex -10.5423 9.4346 37.95
      vertex -5.85 12.3346 39.7423
    endloop
  endfacet
  facet normal -0.57735 0.57735 0.57735
    outer loop
      vertex -5.85 12.3346 39.7423
      vertex -10.5423 9.4346 37.95
      vertex -2.95 10.5423 44.4346
    endloop
  endfacet
  facet normal -0.57735 0.57735 0.57735
    outer loop
      vertex -2.95 10.5423 44.4346
      vertex -10.5423 9.4346 37.95
      vertex -9.4346 2.95 45.5423
    endloop
  endfacet
  facet normal -0.57735 0.57735 0.57735
    outer loop
      vertex -2.95 10.5423 44.4346
      vertex -9.4346 2.95 45.5423
      vertex -4.7423 5.85 47.3346
    endloop
  endfacet
  facet normal -0.356822 9.95432e-008 0.934172
    outer loop
      vertex -4.7423 5.85 47.3346
      vertex -9.4346 2.95 45.5423
      vertex -0.05 2.95 49.1269
    endloop
  endfacet
  facet normal -0.356822 0 0.934172
    outer loop
      vertex -9.4346 2.95 45.5423
      vertex -9.4346 -2.95 45.5423
      vertex -0.05 -2.95 49.1269
    endloop
  endfacet
  facet normal -0.356822 0 0.934172
    outer loop
      vertex -0.05 2.95 49.1269
      vertex -9.4346 2.95 45.5423
      vertex -0.05 -2.95 49.1269
    endloop
  endfacet
  facet normal -0.57735 -0.57735 0.57735
    outer loop
      vertex -4.7423 -5.85 47.3346
      vertex -9.4346 -2.95 45.5423
      vertex -2.95 -10.5423 44.4346
    endloop
  endfacet
  facet normal -0.356822 -9.95432e-008 0.934172
    outer loop
      vertex -0.05 -2.95 49.1269
      vertex -9.4346 -2.95 45.5423
      vertex -4.7423 -5.85 47.3346
    endloop
  endfacet
  facet normal -8.76865e-008 -0.525731 0.850651
    outer loop
      vertex -0.05 -2.95 49.1269
      vertex -4.7423 -5.85 47.3346
      vertex -2.95 -10.5423 44.4346
    endloop
  endfacet
  facet normal 0 -0.525731 0.850651
    outer loop
      vertex -0.05 -2.95 49.1269
      vertex -2.95 -10.5423 44.4346
      vertex 2.95 -10.5423 44.4346
    endloop
  endfacet
  facet normal 0 -0.525731 0.850651
    outer loop
      vertex 0.05 -2.95 49.1269
      vertex -0.05 -2.95 49.1269
      vertex 2.95 -10.5423 44.4346
    endloop
  endfacet
  facet normal 0 -0.934172 0.356822
    outer loop
      vertex -2.95 -10.5423 44.4346
      vertex -2.95 -14.1269 35.05
      vertex 2.95 -14.1269 35.05
    endloop
  endfacet
  facet normal 0 -0.934172 0.356822
    outer loop
      vertex 2.95 -10.5423 44.4346
      vertex -2.95 -10.5423 44.4346
      vertex 2.95 -14.1269 35.05
    endloop
  endfacet
  facet normal -9.95432e-008 -0.934172 0.356822
    outer loop
      vertex -2.95 -10.5423 44.4346
      vertex -5.85 -12.3346 39.7423
      vertex -2.95 -14.1269 35.05
    endloop
  endfacet
  facet normal 0 -1 0
    outer loop
      vertex -2.95 -14.1269 35.05
      vertex -2.95 -14.1269 34.95
      vertex 2.95 -14.1269 34.95
    endloop
  endfacet
  facet normal 0 -1 0
    outer loop
      vertex 2.95 -14.1269 35.05
      vertex -2.95 -14.1269 35.05
      vertex 2.95 -14.1269 34.95
    endloop
  endfacet
  facet normal -9.95432e-008 -0.934172 -0.356822
    outer loop
      vertex -2.95 -14.1269 34.95
      vertex -5.85 -12.3346 30.2577
      vertex -2.95 -10.5423 25.5654
    endloop
  endfacet
  facet normal 0 -0.934172 -0.356822
    outer loop
      vertex 2.95 -14.1269 34.95
      vertex -2.95 -14.1269 34.95
      vertex -2.95 -10.5423 25.5654
    endloop
  endfacet
  facet normal 0 -0.934172 -0.356822
    outer loop
      vertex 2.95 -10.5423 25.5654
      vertex 2.95 -14.1269 34.95
      vertex -2.95 -10.5423 25.5654
    endloop
  endfacet
  facet normal 0 -0.525731 -0.850651
    outer loop
      vertex -2.95 -10.5423 25.5654
      vertex -0.774208 -4.846 22.0449
      vertex 2.95 -10.5423 25.5654
    endloop
  endfacet
  facet normal 0 -0.525731 -0.850651
    outer loop
      vertex 2.95 -10.5423 25.5654
      vertex -0.774208 -4.846 22.0449
      vertex 0 -5 22.1401
    endloop
  endfacet
  facet normal 0 -0.525731 -0.850651
    outer loop
      vertex 2.95 -10.5423 25.5654
      vertex 0 -5 22.1401
      vertex 0.774208 -4.846 22.0449
    endloop
  endfacet
  facet normal -8.76865e-008 -0.525731 -0.850651
    outer loop
      vertex -4.7423 -5.85 22.6654
      vertex -2.31595 -4.35043 21.7386
      vertex -2.95 -10.5423 25.5654
    endloop
  endfacet
  facet normal -8.76865e-008 -0.525731 -0.850651
    outer loop
      vertex -2.95 -10.5423 25.5654
      vertex -2.31595 -4.35043 21.7386
      vertex -1.91342 -4.6194 21.9048
    endloop
  endfacet
  facet normal -8.76865e-008 -0.525731 -0.850651
    outer loop
      vertex -2.95 -10.5423 25.5654
      vertex -1.91342 -4.6194 21.9048
      vertex -0.774208 -4.846 22.0449
    endloop
  endfacet
  facet normal -0.83147 -0.55557 0
    outer loop
      vertex -4.6194 -1.91342 1
      vertex -3.53553 -3.53553 1
      vertex -4.6194 -1.91342 22.6185
    endloop
  endfacet
  facet normal -0.83147 -0.55557 0
    outer loop
      vertex -3.92678 -2.95 22.3539
      vertex -3.53553 -3.53553 1
      vertex -3.53553 -3.53553 22.2045
    endloop
  endfacet
  facet normal -0.83147 -0.55557 0
    outer loop
      vertex -4.6194 -1.91342 22.6185
      vertex -3.53553 -3.53553 1
      vertex -3.92678 -2.95 22.3539
    endloop
  endfacet
  facet normal -0.980785 -0.19509 0
    outer loop
      vertex -5 0 1
      vertex -4.6194 -1.91342 1
      vertex -5 0 22.7638
    endloop
  endfacet
  facet normal -0.980785 -0.19509 0
    outer loop
      vertex -5 0 22.7638
      vertex -4.6194 -1.91342 1
      vertex -4.6194 -1.91342 22.6185
    endloop
  endfacet
  facet normal -0.980785 0.19509 0
    outer loop
      vertex -5 0 1
      vertex -5 0 22.7638
      vertex -4.6194 1.91342 1
    endloop
  endfacet
  facet normal -0.980785 0.19509 0
    outer loop
      vertex -4.6194 1.91342 1
      vertex -5 0 22.7638
      vertex -4.6194 1.91342 22.6185
    endloop
  endfacet
  facet normal -0.83147 0.55557 0
    outer loop
      vertex -4.6194 1.91342 1
      vertex -4.6194 1.91342 22.6185
      vertex -3.53553 3.53553 1
    endloop
  endfacet
  facet normal -0.83147 0.55557 0
    outer loop
      vertex -3.53553 3.53553 1
      vertex -4.6194 1.91342 22.6185
      vertex -3.92678 2.95 22.3539
    endloop
  endfacet
  facet normal -0.83147 0.55557 0
    outer loop
      vertex -3.53553 3.53553 1
      vertex -3.92678 2.95 22.3539
      vertex -3.53553 3.53553 22.2045
    endloop
  endfacet
  facet normal -0.55557 -0.83147 0
    outer loop
      vertex -3.53553 -3.53553 22.2045
      vertex -3.53553 -3.53553 1
      vertex -1.91342 -4.6194 1
    endloop
  endfacet
  facet normal -0.55557 -0.83147 0
    outer loop
      vertex -2.31595 -4.35043 21.7386
      vertex -3.53553 -3.53553 22.2045
      vertex -1.91342 -4.6194 1
    endloop
  endfacet
  facet normal -0.55557 -0.83147 0
    outer loop
      vertex -1.91342 -4.6194 21.9048
      vertex -2.31595 -4.35043 21.7386
      vertex -1.91342 -4.6194 1
    endloop
  endfacet
  facet normal -0.55557 0.83147 0
    outer loop
      vertex -3.53553 3.53553 1
      vertex -3.53553 3.53553 22.2045
      vertex -1.91342 4.6194 1
    endloop
  endfacet
  facet normal -0.55557 0.83147 0
    outer loop
      vertex -1.91342 4.6194 1
      vertex -3.53553 3.53553 22.2045
      vertex -2.31595 4.35043 21.7386
    endloop
  endfacet
  facet normal -0.55557 0.83147 0
    outer loop
      vertex -1.91342 4.6194 1
      vertex -2.31595 4.35043 21.7386
      vertex -1.91342 4.6194 21.9048
    endloop
  endfacet
  facet normal -8.76865e-008 0.525731 -0.850651
    outer loop
      vertex -4.7423 5.85 22.6654
      vertex -2.95 10.5423 25.5654
      vertex -2.31595 4.35043 21.7386
    endloop
  endfacet
  facet normal -8.76865e-008 0.525731 -0.850651
    outer loop
      vertex -1.91342 4.6194 21.9048
      vertex -2.95 10.5423 25.5654
      vertex -0.774208 4.846 22.0449
    endloop
  endfacet
  facet normal -8.76865e-008 0.525731 -0.850651
    outer loop
      vertex -2.31595 4.35043 21.7386
      vertex -2.95 10.5423 25.5654
      vertex -1.91342 4.6194 21.9048
    endloop
  endfacet
  facet normal 0 0.525731 -0.850651
    outer loop
      vertex -2.95 10.5423 25.5654
      vertex 2.95 10.5423 25.5654
      vertex -0.774208 4.846 22.0449
    endloop
  endfacet
  facet normal 0 0.525731 -0.850651
    outer loop
      vertex 0 5 22.1401
      vertex 2.95 10.5423 25.5654
      vertex 0.774208 4.846 22.0449
    endloop
  endfacet
  facet normal 0 0.525731 -0.850651
    outer loop
      vertex -0.774208 4.846 22.0449
      vertex 2.95 10.5423 25.5654
      vertex 0 5 22.1401
    endloop
  endfacet
  facet normal 0 0.934172 -0.356822
    outer loop
      vertex -2.95 10.5423 25.5654
      vertex -2.95 14.1269 34.95
      vertex 2.95 10.5423 25.5654
    endloop
  endfacet
  facet normal 0 0.934172 -0.356822
    outer loop
      vertex 2.95 10.5423 25.5654
      vertex -2.95 14.1269 34.95
      vertex 2.95 14.1269 34.95
    endloop
  endfacet
  facet normal -9.95432e-008 0.934172 -0.356822
    outer loop
      vertex -2.95 10.5423 25.5654
      vertex -5.85 12.3346 30.2577
      vertex -2.95 14.1269 34.95
    endloop
  endfacet
  facet normal 0 1 0
    outer loop
      vertex -2.95 14.1269 34.95
      vertex -2.95 14.1269 35.05
      vertex 2.95 14.1269 34.95
    endloop
  endfacet
  facet normal 0 1 0
    outer loop
      vertex 2.95 14.1269 34.95
      vertex -2.95 14.1269 35.05
      vertex 2.95 14.1269 35.05
    endloop
  endfacet
  facet normal 0 0.934172 0.356822
    outer loop
      vertex -2.95 10.5423 44.4346
      vertex 2.95 10.5423 44.4346
      vertex -2.95 14.1269 35.05
    endloop
  endfacet
  facet normal 0 0.934172 0.356822
    outer loop
      vertex -2.95 14.1269 35.05
      vertex 2.95 10.5423 44.4346
      vertex 2.95 14.1269 35.05
    endloop
  endfacet
  facet normal -9.95432e-008 0.934172 0.356822
    outer loop
      vertex -2.95 14.1269 35.05
      vertex -5.85 12.3346 39.7423
      vertex -2.95 10.5423 44.4346
    endloop
  endfacet
  facet normal 0 0.525731 0.850651
    outer loop
      vertex 2.95 10.5423 44.4346
      vertex -2.95 10.5423 44.4346
      vertex -0.05 2.95 49.1269
    endloop
  endfacet
  facet normal 0 0.525731 0.850651
    outer loop
      vertex 0.05 2.95 49.1269
      vertex 2.95 10.5423 44.4346
      vertex -0.05 2.95 49.1269
    endloop
  endfacet
  facet normal -8.76865e-008 0.525731 0.850651
    outer loop
      vertex -2.95 10.5423 44.4346
      vertex -4.7423 5.85 47.3346
      vertex -0.05 2.95 49.1269
    endloop
  endfacet
  facet normal 0 0 1
    outer loop
      vertex -0.05 2.95 49.1269
      vertex -0.05 -2.95 49.1269
      vertex 0.05 -2.95 49.1269
    endloop
  endfacet
  facet normal 0 0 1
    outer loop
      vertex 0.05 2.95 49.1269
      vertex -0.05 2.95 49.1269
      vertex 0.05 -2.95 49.1269
    endloop
  endfacet
  facet normal 0.356822 0 0.934172
    outer loop
      vertex 0.05 2.95 49.1269
      vertex 0.05 -2.95 49.1269
      vertex 9.4346 -2.95 45.5423
    endloop
  endfacet
  facet normal 0.356822 0 0.934172
    outer loop
      vertex 9.4346 2.95 45.5423
      vertex 0.05 2.95 49.1269
      vertex 9.4346 -2.95 45.5423
    endloop
  endfacet
  facet normal 0.356822 -9.95432e-008 0.934172
    outer loop
      vertex 9.4346 -2.95 45.5423
      vertex 0.05 -2.95 49.1269
      vertex 4.7423 -5.85 47.3346
    endloop
  endfacet
  facet normal 8.76865e-008 -0.525731 0.850651
    outer loop
      vertex 4.7423 -5.85 47.3346
      vertex 0.05 -2.95 49.1269
      vertex 2.95 -10.5423 44.4346
    endloop
  endfacet
  facet normal 0.57735 -0.57735 0.57735
    outer loop
      vertex 4.7423 -5.85 47.3346
      vertex 2.95 -10.5423 44.4346
      vertex 9.4346 -2.95 45.5423
    endloop
  endfacet
  facet normal 0.57735 -0.57735 0.57735
    outer loop
      vertex 9.4346 -2.95 45.5423
      vertex 2.95 -10.5423 44.4346
      vertex 10.5423 -9.4346 37.95
    endloop
  endfacet
  facet normal 0.57735 -0.57735 0.57735
    outer loop
      vertex 10.5423 -9.4346 37.95
      vertex 2.95 -10.5423 44.4346
      vertex 5.85 -12.3346 39.7423
    endloop
  endfacet
  facet normal 9.95432e-008 -0.934172 0.356822
    outer loop
      vertex 2.95 -10.5423 44.4346
      vertex 2.95 -14.1269 35.05
      vertex 5.85 -12.3346 39.7423
    endloop
  endfacet
  facet normal 0.525731 -0.850651 8.76865e-008
    outer loop
      vertex 5.85 -12.3346 39.7423
      vertex 2.95 -14.1269 35.05
      vertex 10.5423 -9.4346 37.95
    endloop
  endfacet
  facet normal 0.525731 -0.850651 0
    outer loop
      vertex 2.95 -14.1269 35.05
      vertex 2.95 -14.1269 34.95
      vertex 10.5423 -9.4346 32.05
    endloop
  endfacet
  facet normal 0.525731 -0.850651 0
    outer loop
      vertex 10.5423 -9.4346 37.95
      vertex 2.95 -14.1269 35.05
      vertex 10.5423 -9.4346 32.05
    endloop
  endfacet
  facet normal 0.525731 -0.850651 -8.76865e-008
    outer loop
      vertex 10.5423 -9.4346 32.05
      vertex 2.95 -14.1269 34.95
      vertex 5.85 -12.3346 30.2577
    endloop
  endfacet
  facet normal 9.95432e-008 -0.934172 -0.356822
    outer loop
      vertex 5.85 -12.3346 30.2577
      vertex 2.95 -14.1269 34.95
      vertex 2.95 -10.5423 25.5654
    endloop
  endfacet
  facet normal 0.57735 -0.57735 -0.57735
    outer loop
      vertex 5.85 -12.3346 30.2577
      vertex 2.95 -10.5423 25.5654
      vertex 10.5423 -9.4346 32.05
    endloop
  endfacet
  facet normal 0.57735 -0.57735 -0.57735
    outer loop
      vertex 10.5423 -9.4346 32.05
      vertex 2.95 -10.5423 25.5654
      vertex 9.4346 -2.95 24.4577
    endloop
  endfacet
  facet normal 0.57735 -0.57735 -0.57735
    outer loop
      vertex 9.4346 -2.95 24.4577
      vertex 2.95 -10.5423 25.5654
      vertex 4.7423 -5.85 22.6654
    endloop
  endfacet
  facet normal 8.76865e-008 -0.525731 -0.850651
    outer loop
      vertex 0.774208 -4.846 22.0449
      vertex 1.91342 -4.6194 21.9048
      vertex 2.95 -10.5423 25.5654
    endloop
  endfacet
  facet normal 8.76865e-008 -0.525731 -0.850651
    outer loop
      vertex 2.95 -10.5423 25.5654
      vertex 1.91342 -4.6194 21.9048
      vertex 2.31595 -4.35043 21.7386
    endloop
  endfacet
  facet normal 8.76865e-008 -0.525731 -0.850651
    outer loop
      vertex 2.95 -10.5423 25.5654
      vertex 2.31595 -4.35043 21.7386
      vertex 4.7423 -5.85 22.6654
    endloop
  endfacet
  facet normal 0.19509 -0.980785 0
    outer loop
      vertex 0 -5 22.1401
      vertex 0 -5 1
      vertex 1.91342 -4.6194 1
    endloop
  endfacet
  facet normal 0.19509 -0.980785 0
    outer loop
      vertex 0.774208 -4.846 22.0449
      vertex 0 -5 22.1401
      vertex 1.91342 -4.6194 1
    endloop
  endfacet
  facet normal 0.19509 -0.980785 0
    outer loop
      vertex 1.91342 -4.6194 21.9048
      vertex 0.774208 -4.846 22.0449
      vertex 1.91342 -4.6194 1
    endloop
  endfacet
  facet normal -0.19509 -0.980785 0
    outer loop
      vertex -1.91342 -4.6194 21.9048
      vertex -1.91342 -4.6194 1
      vertex 0 -5 1
    endloop
  endfacet
  facet normal -0.19509 -0.980785 0
    outer loop
      vertex -0.774208 -4.846 22.0449
      vertex -1.91342 -4.6194 21.9048
      vertex 0 -5 1
    endloop
  endfacet
  facet normal -0.19509 -0.980785 0
    outer loop
      vertex 0 -5 22.1401
      vertex -0.774208 -4.846 22.0449
      vertex 0 -5 1
    endloop
  endfacet
  facet normal 0 0 -1
    outer loop
      vertex -5 0 1
      vertex -4.6194 1.91342 1
      vertex -4.6194 -1.91342 1
    endloop
  endfacet
  facet normal 0 0 -1
    outer loop
      vertex -4.6194 -1.91342 1
      vertex -4.6194 1.91342 1
      vertex -3.53553 3.53553 1
    endloop
  endfacet
  facet normal 0 0 -1
    outer loop
      vertex -4.6194 -1.91342 1
      vertex -3.53553 3.53553 1
      vertex -1.91342 4.6194 1
    endloop
  endfacet
  facet normal 0 0 -1
    outer loop
      vertex -4.6194 -1.91342 1
      vertex -1.91342 4.6194 1
      vertex 0 5 1
    endloop
  endfacet
  facet normal 0 0 -1
    outer loop
      vertex -4.6194 -1.91342 1
      vertex 0 5 1
      vertex 1.91342 4.6194 1
    endloop
  endfacet
  facet normal 0 0 -1
    outer loop
      vertex -4.6194 -1.91342 1
      vertex 1.91342 4.6194 1
      vertex 3.53553 3.53553 1
    endloop
  endfacet
  facet normal 0 0 -1
    outer loop
      vertex -4.6194 -1.91342 1
      vertex 3.53553 3.53553 1
      vertex 4.6194 1.91342 1
    endloop
  endfacet
  facet normal 0 0 -1
    outer loop
      vertex -4.6194 -1.91342 1
      vertex 4.6194 1.91342 1
      vertex 5 0 1
    endloop
  endfacet
  facet normal 0 0 -1
    outer loop
      vertex -4.6194 -1.91342 1
      vertex 5 0 1
      vertex 4.6194 -1.91342 1
    endloop
  endfacet
  facet normal 0 0 -1
    outer loop
      vertex -4.6194 -1.91342 1
      vertex 4.6194 -1.91342 1
      vertex 3.53553 -3.53553 1
    endloop
  endfacet
  facet normal 0 0 -1
    outer loop
      vertex -4.6194 -1.91342 1
      vertex 3.53553 -3.53553 1
      vertex 1.91342 -4.6194 1
    endloop
  endfacet
  facet normal 0 0 -1
    outer loop
      vertex -4.6194 -1.91342 1
      vertex 1.91342 -4.6194 1
      vertex 0 -5 1
    endloop
  endfacet
  facet normal 0 0 -1
    outer loop
      vertex -4.6194 -1.91342 1
      vertex 0 -5 1
      vertex -1.91342 -4.6194 1
    endloop
  endfacet
  facet normal 0 0 -1
    outer loop
      vertex -4.6194 -1.91342 1
      vertex -1.91342 -4.6194 1
      vertex -3.53553 -3.53553 1
    endloop
  endfacet
  facet normal -0.19509 0.980785 0
    outer loop
      vertex -1.91342 4.6194 1
      vertex -1.91342 4.6194 21.9048
      vertex 0 5 1
    endloop
  endfacet
  facet normal -0.19509 0.980785 0
    outer loop
      vertex 0 5 1
      vertex -1.91342 4.6194 21.9048
      vertex -0.774208 4.846 22.0449
    endloop
  endfacet
  facet normal -0.19509 0.980785 0
    outer loop
      vertex 0 5 1
      vertex -0.774208 4.846 22.0449
      vertex 0 5 22.1401
    endloop
  endfacet
  facet normal 0.19509 0.980785 0
    outer loop
      vertex 0 5 1
      vertex 0 5 22.1401
      vertex 1.91342 4.6194 1
    endloop
  endfacet
  facet normal 0.19509 0.980785 0
    outer loop
      vertex 1.91342 4.6194 1
      vertex 0 5 22.1401
      vertex 0.774208 4.846 22.0449
    endloop
  endfacet
  facet normal 0.19509 0.980785 0
    outer loop
      vertex 1.91342 4.6194 1
      vertex 0.774208 4.846 22.0449
      vertex 1.91342 4.6194 21.9048
    endloop
  endfacet
  facet normal 8.76865e-008 0.525731 -0.850651
    outer loop
      vertex 0.774208 4.846 22.0449
      vertex 2.95 10.5423 25.5654
      vertex 1.91342 4.6194 21.9048
    endloop
  endfacet
  facet normal 8.76865e-008 0.525731 -0.850651
    outer loop
      vertex 1.91342 4.6194 21.9048
      vertex 2.95 10.5423 25.5654
      vertex 4.7423 5.85 22.6654
    endloop
  endfacet
  facet normal 8.76865e-008 0.525731 -0.850651
    outer loop
      vertex 1.91342 4.6194 21.9048
      vertex 4.7423 5.85 22.6654
      vertex 2.31595 4.35043 21.7386
    endloop
  endfacet
  facet normal 9.95432e-008 0.934172 -0.356822
    outer loop
      vertex 5.85 12.3346 30.2577
      vertex 2.95 10.5423 25.5654
      vertex 2.95 14.1269 34.95
    endloop
  endfacet
  facet normal 0.57735 0.57735 -0.57735
    outer loop
      vertex 4.7423 5.85 22.6654
      vertex 2.95 10.5423 25.5654
      vertex 9.4346 2.95 24.4577
    endloop
  endfacet
  facet normal 0.57735 0.57735 -0.57735
    outer loop
      vertex 9.4346 2.95 24.4577
      vertex 2.95 10.5423 25.5654
      vertex 10.5423 9.4346 32.05
    endloop
  endfacet
  facet normal 0.57735 0.57735 -0.57735
    outer loop
      vertex 10.5423 9.4346 32.05
      vertex 2.95 10.5423 25.5654
      vertex 5.85 12.3346 30.2577
    endloop
  endfacet
  facet normal 0.525731 0.850651 -8.76865e-008
    outer loop
      vertex 5.85 12.3346 30.2577
      vertex 2.95 14.1269 34.95
      vertex 10.5423 9.4346 32.05
    endloop
  endfacet
  facet normal 0.525731 0.850651 0
    outer loop
      vertex 2.95 14.1269 34.95
      vertex 2.95 14.1269 35.05
      vertex 10.5423 9.4346 32.05
    endloop
  endfacet
  facet normal 0.525731 0.850651 0
    outer loop
      vertex 10.5423 9.4346 32.05
      vertex 2.95 14.1269 35.05
      vertex 10.5423 9.4346 37.95
    endloop
  endfacet
  facet normal 9.95432e-008 0.934172 0.356822
    outer loop
      vertex 2.95 14.1269 35.05
      vertex 2.95 10.5423 44.4346
      vertex 5.85 12.3346 39.7423
    endloop
  endfacet
  facet normal 0.525731 0.850651 8.76865e-008
    outer loop
      vertex 10.5423 9.4346 37.95
      vertex 2.95 14.1269 35.05
      vertex 5.85 12.3346 39.7423
    endloop
  endfacet
  facet normal 0.57735 0.57735 0.57735
    outer loop
      vertex 5.85 12.3346 39.7423
      vertex 2.95 10.5423 44.4346
      vertex 10.5423 9.4346 37.95
    endloop
  endfacet
  facet normal 0.57735 0.57735 0.57735
    outer loop
      vertex 10.5423 9.4346 37.95
      vertex 2.95 10.5423 44.4346
      vertex 9.4346 2.95 45.5423
    endloop
  endfacet
  facet normal 0.57735 0.57735 0.57735
    outer loop
      vertex 9.4346 2.95 45.5423
      vertex 2.95 10.5423 44.4346
      vertex 4.7423 5.85 47.3346
    endloop
  endfacet
  facet normal 8.76865e-008 0.525731 0.850651
    outer loop
      vertex 2.95 10.5423 44.4346
      vertex 0.05 2.95 49.1269
      vertex 4.7423 5.85 47.3346
    endloop
  endfacet
  facet normal 0.356822 9.95432e-008 0.934172
    outer loop
      vertex 4.7423 5.85 47.3346
      vertex 0.05 2.95 49.1269
      vertex 9.4346 2.95 45.5423
    endloop
  endfacet
  facet normal 0.57735 0.57735 0.57735
    outer loop
      vertex 10.5423 9.4346 37.95
      vertex 9.4346 2.95 45.5423
      vertex 12.3346 4.7423 40.85
    endloop
  endfacet
  facet normal 0.850651 8.76865e-008 0.525731
    outer loop
      vertex 12.3346 4.7423 40.85
      vertex 9.4346 2.95 45.5423
      vertex 14.1269 0.05 37.95
    endloop
  endfacet
  facet normal 0.850651 0 0.525731
    outer loop
      vertex 9.4346 2.95 45.5423
      vertex 9.4346 -2.95 45.5423
      vertex 14.1269 -0.05 37.95
    endloop
  endfacet
  facet normal 0.850651 0 0.525731
    outer loop
      vertex 14.1269 0.05 37.95
      vertex 9.4346 2.95 45.5423
      vertex 14.1269 -0.05 37.95
    endloop
  endfacet
  facet normal 0.850651 -8.76865e-008 0.525731
    outer loop
      vertex 14.1269 -0.05 37.95
      vertex 9.4346 -2.95 45.5423
      vertex 12.3346 -4.7423 40.85
    endloop
  endfacet
  facet normal 0.57735 -0.57735 0.57735
    outer loop
      vertex 12.3346 -4.7423 40.85
      vertex 9.4346 -2.95 45.5423
      vertex 10.5423 -9.4346 37.95
    endloop
  endfacet
  facet normal 0.934172 -0.356822 9.95432e-008
    outer loop
      vertex 12.3346 -4.7423 40.85
      vertex 10.5423 -9.4346 37.95
      vertex 14.1269 -0.05 37.95
    endloop
  endfacet
  facet normal 0.934172 -0.356822 0
    outer loop
      vertex 10.5423 -9.4346 37.95
      vertex 10.5423 -9.4346 32.05
      vertex 14.1269 -0.05 32.05
    endloop
  endfacet
  facet normal 0.934172 -0.356822 0
    outer loop
      vertex 14.1269 -0.05 37.95
      vertex 10.5423 -9.4346 37.95
      vertex 14.1269 -0.05 32.05
    endloop
  endfacet
  facet normal 0.934172 -0.356822 -9.95432e-008
    outer loop
      vertex 14.1269 -0.05 32.05
      vertex 10.5423 -9.4346 32.05
      vertex 12.3346 -4.7423 29.15
    endloop
  endfacet
  facet normal 0.57735 -0.57735 -0.57735
    outer loop
      vertex 10.5423 -9.4346 32.05
      vertex 9.4346 -2.95 24.4577
      vertex 12.3346 -4.7423 29.15
    endloop
  endfacet
  facet normal 0.850651 0 -0.525731
    outer loop
      vertex 14.1269 -0.05 32.05
      vertex 9.4346 -2.95 24.4577
      vertex 9.4346 2.95 24.4577
    endloop
  endfacet
  facet normal 0.850651 0 -0.525731
    outer loop
      vertex 14.1269 0.05 32.05
      vertex 14.1269 -0.05 32.05
      vertex 9.4346 2.95 24.4577
    endloop
  endfacet
  facet normal 0.356822 0 -0.934172
    outer loop
      vertex 3.92678 -2.95 22.3539
      vertex 4.6194 -1.91342 22.6185
      vertex 9.4346 -2.95 24.4577
    endloop
  endfacet
  facet normal 0.356822 0 -0.934172
    outer loop
      vertex 9.4346 -2.95 24.4577
      vertex 4.6194 -1.91342 22.6185
      vertex 5 0 22.7638
    endloop
  endfacet
  facet normal 0.356822 0 -0.934172
    outer loop
      vertex 5 0 22.7638
      vertex 4.6194 1.91342 22.6185
      vertex 9.4346 -2.95 24.4577
    endloop
  endfacet
  facet normal 0.356822 0 -0.934172
    outer loop
      vertex 4.6194 1.91342 22.6185
      vertex 3.92678 2.95 22.3539
      vertex 9.4346 -2.95 24.4577
    endloop
  endfacet
  facet normal 0.356822 0 -0.934172
    outer loop
      vertex 9.4346 -2.95 24.4577
      vertex 3.92678 2.95 22.3539
      vertex 9.4346 2.95 24.4577
    endloop
  endfacet
  facet normal 0.356822 -9.95432e-008 -0.934172
    outer loop
      vertex 2.31595 -4.35043 21.7386
      vertex 3.53553 -3.53553 22.2045
      vertex 4.7423 -5.85 22.6654
    endloop
  endfacet
  facet normal 0.356822 -9.95432e-008 -0.934172
    outer loop
      vertex 4.7423 -5.85 22.6654
      vertex 3.53553 -3.53553 22.2045
      vertex 3.92678 -2.95 22.3539
    endloop
  endfacet
  facet normal 0.356822 -9.95432e-008 -0.934172
    outer loop
      vertex 4.7423 -5.85 22.6654
      vertex 3.92678 -2.95 22.3539
      vertex 9.4346 -2.95 24.4577
    endloop
  endfacet
  facet normal 0.850651 -8.76865e-008 -0.525731
    outer loop
      vertex 12.3346 -4.7423 29.15
      vertex 9.4346 -2.95 24.4577
      vertex 14.1269 -0.05 32.05
    endloop
  endfacet
  facet normal 0.55557 -0.83147 0
    outer loop
      vertex 1.91342 -4.6194 21.9048
      vertex 1.91342 -4.6194 1
      vertex 3.53553 -3.53553 1
    endloop
  endfacet
  facet normal 0.55557 -0.83147 0
    outer loop
      vertex 2.31595 -4.35043 21.7386
      vertex 1.91342 -4.6194 21.9048
      vertex 3.53553 -3.53553 1
    endloop
  endfacet
  facet normal 0.55557 -0.83147 0
    outer loop
      vertex 3.53553 -3.53553 22.2045
      vertex 2.31595 -4.35043 21.7386
      vertex 3.53553 -3.53553 1
    endloop
  endfacet
  facet normal 0.83147 -0.55557 0
    outer loop
      vertex 3.53553 -3.53553 22.2045
      vertex 3.53553 -3.53553 1
      vertex 4.6194 -1.91342 1
    endloop
  endfacet
  facet normal 0.83147 -0.55557 0
    outer loop
      vertex 3.92678 -2.95 22.3539
      vertex 3.53553 -3.53553 22.2045
      vertex 4.6194 -1.91342 1
    endloop
  endfacet
  facet normal 0.83147 -0.55557 0
    outer loop
      vertex 4.6194 -1.91342 22.6185
      vertex 3.92678 -2.95 22.3539
      vertex 4.6194 -1.91342 1
    endloop
  endfacet
  facet normal 0.980785 -0.19509 0
    outer loop
      vertex 4.6194 -1.91342 22.6185
      vertex 4.6194 -1.91342 1
      vertex 5 0 1
    endloop
  endfacet
  facet normal 0.980785 -0.19509 0
    outer loop
      vertex 5 0 22.7638
      vertex 4.6194 -1.91342 22.6185
      vertex 5 0 1
    endloop
  endfacet
  facet normal 0.980785 0.19509 0
    outer loop
      vertex 5 0 1
      vertex 4.6194 1.91342 1
      vertex 4.6194 1.91342 22.6185
    endloop
  endfacet
  facet normal 0.980785 0.19509 0
    outer loop
      vertex 5 0 22.7638
      vertex 5 0 1
      vertex 4.6194 1.91342 22.6185
    endloop
  endfacet
  facet normal 0.83147 0.55557 0
    outer loop
      vertex 4.6194 1.91342 1
      vertex 3.53553 3.53553 1
      vertex 3.53553 3.53553 22.2045
    endloop
  endfacet
  facet normal 0.83147 0.55557 0
    outer loop
      vertex 4.6194 1.91342 22.6185
      vertex 4.6194 1.91342 1
      vertex 3.92678 2.95 22.3539
    endloop
  endfacet
  facet normal 0.83147 0.55557 0
    outer loop
      vertex 3.92678 2.95 22.3539
      vertex 4.6194 1.91342 1
      vertex 3.53553 3.53553 22.2045
    endloop
  endfacet
  facet normal 0.55557 0.83147 0
    outer loop
      vertex 1.91342 4.6194 1
      vertex 1.91342 4.6194 21.9048
      vertex 3.53553 3.53553 1
    endloop
  endfacet
  facet normal 0.55557 0.83147 0
    outer loop
      vertex 3.53553 3.53553 1
      vertex 1.91342 4.6194 21.9048
      vertex 2.31595 4.35043 21.7386
    endloop
  endfacet
  facet normal 0.55557 0.83147 0
    outer loop
      vertex 3.53553 3.53553 1
      vertex 2.31595 4.35043 21.7386
      vertex 3.53553 3.53553 22.2045
    endloop
  endfacet
  facet normal 0.356822 9.95432e-008 -0.934172
    outer loop
      vertex 2.31595 4.35043 21.7386
      vertex 4.7423 5.85 22.6654
      vertex 3.53553 3.53553 22.2045
    endloop
  endfacet
  facet normal 0.356822 9.95432e-008 -0.934172
    outer loop
      vertex 3.53553 3.53553 22.2045
      vertex 4.7423 5.85 22.6654
      vertex 9.4346 2.95 24.4577
    endloop
  endfacet
  facet normal 0.356822 9.95432e-008 -0.934172
    outer loop
      vertex 3.53553 3.53553 22.2045
      vertex 9.4346 2.95 24.4577
      vertex 3.92678 2.95 22.3539
    endloop
  endfacet
  facet normal 0.850651 8.76865e-008 -0.525731
    outer loop
      vertex 14.1269 0.05 32.05
      vertex 9.4346 2.95 24.4577
      vertex 12.3346 4.7423 29.15
    endloop
  endfacet
  facet normal 0.57735 0.57735 -0.57735
    outer loop
      vertex 12.3346 4.7423 29.15
      vertex 9.4346 2.95 24.4577
      vertex 10.5423 9.4346 32.05
    endloop
  endfacet
  facet normal 0.934172 0.356822 -9.95432e-008
    outer loop
      vertex 12.3346 4.7423 29.15
      vertex 10.5423 9.4346 32.05
      vertex 14.1269 0.05 32.05
    endloop
  endfacet
  facet normal 0.934172 0.356822 0
    outer loop
      vertex 14.1269 0.05 32.05
      vertex 10.5423 9.4346 32.05
      vertex 10.5423 9.4346 37.95
    endloop
  endfacet
  facet normal 0.934172 0.356822 0
    outer loop
      vertex 14.1269 0.05 37.95
      vertex 14.1269 0.05 32.05
      vertex 10.5423 9.4346 37.95
    endloop
  endfacet
  facet normal 0.934172 0.356822 9.95432e-008
    outer loop
      vertex 14.1269 0.05 37.95
      vertex 10.5423 9.4346 37.95
      vertex 12.3346 4.7423 40.85
    endloop
  endfacet
  facet normal 1 0 0
    outer loop
      vertex 14.1269 -0.05 37.95
      vertex 14.1269 -0.05 32.05
      vertex 14.1269 0.05 32.05
    endloop
  endfacet
  facet normal 1 0 0
    outer loop
      vertex 14.1269 0.05 37.95
      vertex 14.1269 -0.05 37.95
      vertex 14.1269 0.05 32.05
    endloop
  endfacet
endsolid OpenSCAD_Model
