solid OpenSCAD_Model
  facet normal 0 -1 0
    outer loop
      vertex 137 6 39.5
      vertex 140 6 42.5
      vertex 137 6 42.5
    endloop
  endfacet
  facet normal 0 -1 -0
    outer loop
      vertex 140 6 42.5
      vertex 137 6 39.5
      vertex 140 6 39.5
    endloop
  endfacet
  facet normal 0 -1 0
    outer loop
      vertex 25.5 6 39.5
      vertex 27 6 42.5
      vertex 25.5 6 42.5
    endloop
  endfacet
  facet normal 0 -1 -0
    outer loop
      vertex 27 6 42.5
      vertex 25.5 6 39.5
      vertex 27 6 39.5
    endloop
  endfacet
  facet normal 0 1 0
    outer loop
      vertex 114.5 6 7.5
      vertex 114.5 6 39.5
      vertex 137 6 39.5
    endloop
  endfacet
  facet normal 0 1 0
    outer loop
      vertex 114.5 6 39.5
      vertex 114.5 6 7.5
      vertex 113 6 39.5
    endloop
  endfacet
  facet normal 0 1 0
    outer loop
      vertex 113 6 39.5
      vertex 113 6 7.5
      vertex 27 6 39.5
    endloop
  endfacet
  facet normal 0 1 0
    outer loop
      vertex 27 6 7.5
      vertex 27 6 39.5
      vertex 113 6 7.5
    endloop
  endfacet
  facet normal 0 1 0
    outer loop
      vertex 114.5 6 7.5
      vertex 137 6 39.5
      vertex 137 6 7.5
    endloop
  endfacet
  facet normal 0 1 0
    outer loop
      vertex 113 6 39.5
      vertex 114.5 6 7.5
      vertex 113 6 7.5
    endloop
  endfacet
  facet normal 0 1 0
    outer loop
      vertex 27 6 39.5
      vertex 27 6 7.5
      vertex 25.5 6 39.5
    endloop
  endfacet
  facet normal 0 1 0
    outer loop
      vertex 25.5 6 7.5
      vertex 25.5 6 39.5
      vertex 27 6 7.5
    endloop
  endfacet
  facet normal 0 1 0
    outer loop
      vertex 25.5 6 39.5
      vertex 25.5 6 7.5
      vertex 3 6 39.5
    endloop
  endfacet
  facet normal 0 1 0
    outer loop
      vertex 3 6 39.5
      vertex 25.5 6 7.5
      vertex 3 6 7.5
    endloop
  endfacet
  facet normal 0 1 -0
    outer loop
      vertex 0.5 6 39.5
      vertex 0 6 42.5
      vertex 0.5 6 42.5
    endloop
  endfacet
  facet normal 0 1 0
    outer loop
      vertex 0 6 42.5
      vertex 0.5 6 39.5
      vertex 0 6 39.5
    endloop
  endfacet
  facet normal 0 -1 0
    outer loop
      vertex 113 6 39.5
      vertex 114.5 6 42.5
      vertex 113 6 42.5
    endloop
  endfacet
  facet normal 0 -1 -0
    outer loop
      vertex 114.5 6 42.5
      vertex 113 6 39.5
      vertex 114.5 6 39.5
    endloop
  endfacet
  facet normal 0 -1 0
    outer loop
      vertex 77.5 6 42.5
      vertex 79 6 45.5
      vertex 77.5 6 45.5
    endloop
  endfacet
  facet normal 0 -1 -0
    outer loop
      vertex 79 6 45.5
      vertex 77.5 6 42.5
      vertex 79 6 42.5
    endloop
  endfacet
  facet normal 0 1 0
    outer loop
      vertex 79 6 45.5
      vertex 137 6 50
      vertex 137 6 45.5
    endloop
  endfacet
  facet normal 0 1 0
    outer loop
      vertex 77.5 6 45.5
      vertex 137 6 50
      vertex 79 6 45.5
    endloop
  endfacet
  facet normal 0 1 0
    outer loop
      vertex 137 6 50
      vertex 77.5 6 45.5
      vertex 3 6 50
    endloop
  endfacet
  facet normal 0 1 0
    outer loop
      vertex 3 6 50
      vertex 77.5 6 45.5
      vertex 3 6 45.5
    endloop
  endfacet
  facet normal 0 -1 0
    outer loop
      vertex 137 6 4.5
      vertex 140 6 7.5
      vertex 137 6 7.5
    endloop
  endfacet
  facet normal 0 -1 -0
    outer loop
      vertex 140 6 7.5
      vertex 137 6 4.5
      vertex 140 6 4.5
    endloop
  endfacet
  facet normal 0 -1 0
    outer loop
      vertex 25.5 6 4.5
      vertex 27 6 7.5
      vertex 25.5 6 7.5
    endloop
  endfacet
  facet normal 0 -1 -0
    outer loop
      vertex 27 6 7.5
      vertex 25.5 6 4.5
      vertex 27 6 4.5
    endloop
  endfacet
  facet normal 0 1 -0
    outer loop
      vertex 137 6 0
      vertex 114.5 6 4.5
      vertex 137 6 4.5
    endloop
  endfacet
  facet normal 0 1 0
    outer loop
      vertex 114.5 6 4.5
      vertex 137 6 0
      vertex 113 6 4.5
    endloop
  endfacet
  facet normal 0 1 0
    outer loop
      vertex 113 6 4.5
      vertex 137 6 0
      vertex 27 6 4.5
    endloop
  endfacet
  facet normal 0 1 0
    outer loop
      vertex 3 6 0
      vertex 27 6 4.5
      vertex 137 6 0
    endloop
  endfacet
  facet normal 0 1 0
    outer loop
      vertex 27 6 4.5
      vertex 3 6 0
      vertex 25.5 6 4.5
    endloop
  endfacet
  facet normal 0 1 0
    outer loop
      vertex 25.5 6 4.5
      vertex 3 6 0
      vertex 3 6 4.5
    endloop
  endfacet
  facet normal 0 1 -0
    outer loop
      vertex 0.5 6 4.5
      vertex 0 6 7.5
      vertex 0.5 6 7.5
    endloop
  endfacet
  facet normal 0 1 0
    outer loop
      vertex 0 6 7.5
      vertex 0.5 6 4.5
      vertex 0 6 4.5
    endloop
  endfacet
  facet normal 0 -1 0
    outer loop
      vertex 113 6 4.5
      vertex 114.5 6 7.5
      vertex 113 6 7.5
    endloop
  endfacet
  facet normal 0 -1 -0
    outer loop
      vertex 114.5 6 7.5
      vertex 113 6 4.5
      vertex 114.5 6 4.5
    endloop
  endfacet
  facet normal 0 -1 0
    outer loop
      vertex 3 3 50
      vertex 77.5 3 45.5
      vertex 137 3 50
    endloop
  endfacet
  facet normal 0 -1 0
    outer loop
      vertex 27 3 42.5
      vertex 3 3 50
      vertex 25.5 3 42.5
    endloop
  endfacet
  facet normal 0 -1 0
    outer loop
      vertex 3 3 50
      vertex 25.5 3 39.5
      vertex 25.5 3 42.5
    endloop
  endfacet
  facet normal 0 -1 0
    outer loop
      vertex 27 3 7.5
      vertex 27 3 39.5
      vertex 25.5 3 39.5
    endloop
  endfacet
  facet normal 0 -1 0
    outer loop
      vertex 27 3 39.5
      vertex 27 3 7.5
      vertex 113 3 39.5
    endloop
  endfacet
  facet normal 0 -1 0
    outer loop
      vertex 27 3 7.5
      vertex 25.5 3 39.5
      vertex 25.5 3 7.5
    endloop
  endfacet
  facet normal 0 -1 0
    outer loop
      vertex 3 3 2.25
      vertex 25.5 3 39.5
      vertex 3 3 50
    endloop
  endfacet
  facet normal 0 -1 -0
    outer loop
      vertex 25.5 3 39.5
      vertex 3 3 2.25
      vertex 25.5 3 7.5
    endloop
  endfacet
  facet normal 0 -1 0
    outer loop
      vertex 3 3 0
      vertex 27 3 4.5
      vertex 25.5 3 4.5
    endloop
  endfacet
  facet normal 0 -1 -0
    outer loop
      vertex 27 3 4.5
      vertex 3 3 0
      vertex 113 3 4.5
    endloop
  endfacet
  facet normal 0 -1 0
    outer loop
      vertex 3 3 0
      vertex 25.5 3 4.5
      vertex 3 3 2.25
    endloop
  endfacet
  facet normal 0 -1 -0
    outer loop
      vertex 25.5 3 7.5
      vertex 3 3 2.25
      vertex 25.5 3 4.5
    endloop
  endfacet
  facet normal 0 -1 0
    outer loop
      vertex 79 3 45.5
      vertex 137 3 50
      vertex 77.5 3 45.5
    endloop
  endfacet
  facet normal 0 -1 0
    outer loop
      vertex 113 3 42.5
      vertex 79 3 45.5
      vertex 79 3 42.5
    endloop
  endfacet
  facet normal 0 -1 0
    outer loop
      vertex 79 3 45.5
      vertex 113 3 42.5
      vertex 137 3 50
    endloop
  endfacet
  facet normal 0 -1 0
    outer loop
      vertex 114.5 3 42.5
      vertex 137 3 50
      vertex 113 3 42.5
    endloop
  endfacet
  facet normal 0 -1 0
    outer loop
      vertex 114.5 3 39.5
      vertex 137 3 50
      vertex 114.5 3 42.5
    endloop
  endfacet
  facet normal 0 -1 0
    outer loop
      vertex 113 3 7.5
      vertex 113 3 39.5
      vertex 27 3 7.5
    endloop
  endfacet
  facet normal 0 -1 0
    outer loop
      vertex 113 3 39.5
      vertex 113 3 7.5
      vertex 114.5 3 39.5
    endloop
  endfacet
  facet normal 0 -1 0
    outer loop
      vertex 114.5 3 7.5
      vertex 114.5 3 39.5
      vertex 113 3 7.5
    endloop
  endfacet
  facet normal 0 -1 0
    outer loop
      vertex 137 3 0
      vertex 114.5 3 39.5
      vertex 114.5 3 7.5
    endloop
  endfacet
  facet normal 0 -1 0
    outer loop
      vertex 137 3 0
      vertex 114.5 3 7.5
      vertex 114.5 3 4.5
    endloop
  endfacet
  facet normal 0 -1 0
    outer loop
      vertex 137 3 0
      vertex 113 3 4.5
      vertex 3 3 0
    endloop
  endfacet
  facet normal 0 -1 0
    outer loop
      vertex 114.5 3 39.5
      vertex 137 3 0
      vertex 137 3 50
    endloop
  endfacet
  facet normal 0 -1 0
    outer loop
      vertex 113 3 4.5
      vertex 137 3 0
      vertex 114.5 3 4.5
    endloop
  endfacet
  facet normal 0 -1 0
    outer loop
      vertex 3 3 50
      vertex 27 3 42.5
      vertex 77.5 3 45.5
    endloop
  endfacet
  facet normal 0 -1 0
    outer loop
      vertex 27 3 42.5
      vertex 77.5 3 42.5
      vertex 77.5 3 45.5
    endloop
  endfacet
  facet normal 0 -1 0
    outer loop
      vertex 27 3 39.5
      vertex 77.5 3 42.5
      vertex 27 3 42.5
    endloop
  endfacet
  facet normal 0 -1 0
    outer loop
      vertex 113 3 39.5
      vertex 77.5 3 42.5
      vertex 27 3 39.5
    endloop
  endfacet
  facet normal 0 -1 0
    outer loop
      vertex 77.5 3 42.5
      vertex 113 3 39.5
      vertex 79 3 42.5
    endloop
  endfacet
  facet normal 0 -1 0
    outer loop
      vertex 79 3 42.5
      vertex 113 3 39.5
      vertex 113 3 42.5
    endloop
  endfacet
  facet normal 0 -1 0
    outer loop
      vertex 27 3 4.5
      vertex 113 3 7.5
      vertex 27 3 7.5
    endloop
  endfacet
  facet normal 0 -1 -0
    outer loop
      vertex 113 3 7.5
      vertex 27 3 4.5
      vertex 113 3 4.5
    endloop
  endfacet
  facet normal -0 0 1
    outer loop
      vertex 3 6 50
      vertex 137 3 50
      vertex 137 6 50
    endloop
  endfacet
  facet normal 0 0 1
    outer loop
      vertex 137 3 50
      vertex 3 6 50
      vertex 3 3 50
    endloop
  endfacet
  facet normal -1 0 0
    outer loop
      vertex 3 3 2.25
      vertex 3 6 7.5
      vertex 3 6 4.5
    endloop
  endfacet
  facet normal -1 -0 0
    outer loop
      vertex 3 6 7.5
      vertex 3 3 2.25
      vertex 3 6 39.5
    endloop
  endfacet
  facet normal -1 0 0
    outer loop
      vertex 3 3 50
      vertex 3 6 39.5
      vertex 3 3 2.25
    endloop
  endfacet
  facet normal -1 0 0
    outer loop
      vertex 3 6 39.5
      vertex 3 3 50
      vertex 3 6 42.5
    endloop
  endfacet
  facet normal -1 0 0
    outer loop
      vertex 3 6 42.5
      vertex 3 3 50
      vertex 3 6 45.5
    endloop
  endfacet
  facet normal -1 0 0
    outer loop
      vertex 3 6 45.5
      vertex 3 3 50
      vertex 3 6 50
    endloop
  endfacet
  facet normal -1 0 0
    outer loop
      vertex 3 49 42.5
      vertex 3 47.5 42.5
      vertex 3 49 45.5
    endloop
  endfacet
  facet normal -1 0 0
    outer loop
      vertex 3 49.8571 39.5
      vertex 3 47.5 42.5
      vertex 3 49 42.5
    endloop
  endfacet
  facet normal -1 0 0
    outer loop
      vertex 3 49.8571 39.5
      vertex 3 32.5 42.5
      vertex 3 47.5 42.5
    endloop
  endfacet
  facet normal -1 0 0
    outer loop
      vertex 3 21 39.5
      vertex 3 32.5 42.5
      vertex 3 49.8571 39.5
    endloop
  endfacet
  facet normal -1 0 0
    outer loop
      vertex 3 21 42.5
      vertex 3 32.5 42.5
      vertex 3 21 39.5
    endloop
  endfacet
  facet normal -1 0 0
    outer loop
      vertex 3 32.5 42.5
      vertex 3 21 42.5
      vertex 3 32.5 45.5
    endloop
  endfacet
  facet normal -1 0 0
    outer loop
      vertex 3 6 45.5
      vertex 3 21 42.5
      vertex 3 6 42.5
    endloop
  endfacet
  facet normal -1 0 0
    outer loop
      vertex 3 21 42.5
      vertex 3 6 45.5
      vertex 3 32.5 45.5
    endloop
  endfacet
  facet normal -1 -0 0
    outer loop
      vertex 3 49 45.5
      vertex 3 47.5 42.5
      vertex 3 47.5 45.5
    endloop
  endfacet
  facet normal 1 0 0
    outer loop
      vertex 3 74 39.5
      vertex 3 59 7.5
      vertex 3 74 7.5
    endloop
  endfacet
  facet normal 1 0 -0
    outer loop
      vertex 3 59 7.5
      vertex 3 74 39.5
      vertex 3 49.8571 39.5
    endloop
  endfacet
  facet normal 1 0 0
    outer loop
      vertex 3 74 39.5
      vertex 3 80 50
      vertex 3 74 45.5
    endloop
  endfacet
  facet normal 1 0 -0
    outer loop
      vertex 3 74 45.5
      vertex 3 80 50
      vertex 3 49 45.5
    endloop
  endfacet
  facet normal 1 0 0
    outer loop
      vertex 3 80 50
      vertex 3 74 39.5
      vertex 3 80 0
    endloop
  endfacet
  facet normal 1 -0 0
    outer loop
      vertex 3 74 7.5
      vertex 3 80 0
      vertex 3 74 39.5
    endloop
  endfacet
  facet normal 1 -0 0
    outer loop
      vertex 3 74 4.5
      vertex 3 80 0
      vertex 3 74 7.5
    endloop
  endfacet
  facet normal 1 0 0
    outer loop
      vertex 3 6 0
      vertex 3 74 4.5
      vertex 3 6 4.5
    endloop
  endfacet
  facet normal 1 0 0
    outer loop
      vertex 3 74 4.5
      vertex 3 6 0
      vertex 3 80 0
    endloop
  endfacet
  facet normal 1 0 0
    outer loop
      vertex 3 3 2.25
      vertex 3 0 0
      vertex 3 3 0
    endloop
  endfacet
  facet normal 0 0 -1
    outer loop
      vertex 0 0 0
      vertex 3 3 0
      vertex 3 0 0
    endloop
  endfacet
  facet normal -0 0 -1
    outer loop
      vertex 3 3 0
      vertex 0 0 0
      vertex 3 6 0
    endloop
  endfacet
  facet normal 0 0 -1
    outer loop
      vertex 0 80 0
      vertex 3 6 0
      vertex 0 0 0
    endloop
  endfacet
  facet normal 0 0 -1
    outer loop
      vertex 3 6 0
      vertex 0 80 0
      vertex 3 80 0
    endloop
  endfacet
  facet normal 0 0 -1
    outer loop
      vertex 3 3 0
      vertex 137 6 0
      vertex 137 3 0
    endloop
  endfacet
  facet normal -0 0 -1
    outer loop
      vertex 137 6 0
      vertex 3 3 0
      vertex 3 6 0
    endloop
  endfacet
  facet normal 1 -0 0
    outer loop
      vertex 137 3 50
      vertex 137 6 45.5
      vertex 137 6 50
    endloop
  endfacet
  facet normal 1 0 0
    outer loop
      vertex 137 6 45.5
      vertex 137 3 50
      vertex 137 6 42.5
    endloop
  endfacet
  facet normal 1 0 0
    outer loop
      vertex 137 6 42.5
      vertex 137 3 50
      vertex 137 6 39.5
    endloop
  endfacet
  facet normal 1 0 0
    outer loop
      vertex 137 3 0
      vertex 137 6 39.5
      vertex 137 3 50
    endloop
  endfacet
  facet normal 1 0 0
    outer loop
      vertex 137 6 39.5
      vertex 137 3 0
      vertex 137 6 7.5
    endloop
  endfacet
  facet normal 1 0 0
    outer loop
      vertex 137 6 7.5
      vertex 137 3 0
      vertex 137 6 4.5
    endloop
  endfacet
  facet normal 1 0 0
    outer loop
      vertex 137 6 4.5
      vertex 137 3 0
      vertex 137 6 0
    endloop
  endfacet
  facet normal 1 0 0
    outer loop
      vertex 137 32.5 45.5
      vertex 137 21 42.5
      vertex 137 32.5 42.5
    endloop
  endfacet
  facet normal 1 -0 0
    outer loop
      vertex 137 6 45.5
      vertex 137 21 42.5
      vertex 137 32.5 45.5
    endloop
  endfacet
  facet normal 1 0 0
    outer loop
      vertex 137 21 42.5
      vertex 137 6 45.5
      vertex 137 6 42.5
    endloop
  endfacet
  facet normal 1 0 0
    outer loop
      vertex 137 74 45.5
      vertex 137 59 42.5
      vertex 137 74 42.5
    endloop
  endfacet
  facet normal 1 -0 0
    outer loop
      vertex 137 47.5 45.5
      vertex 137 59 42.5
      vertex 137 74 45.5
    endloop
  endfacet
  facet normal 1 0 0
    outer loop
      vertex 137 47.5 42.5
      vertex 137 59 42.5
      vertex 137 47.5 45.5
    endloop
  endfacet
  facet normal 1 0 0
    outer loop
      vertex 137 59 42.5
      vertex 137 47.5 42.5
      vertex 137 59 39.5
    endloop
  endfacet
  facet normal 1 -0 0
    outer loop
      vertex 137 32.5 42.5
      vertex 137 59 39.5
      vertex 137 47.5 42.5
    endloop
  endfacet
  facet normal 1 0 0
    outer loop
      vertex 137 21 39.5
      vertex 137 32.5 42.5
      vertex 137 21 42.5
    endloop
  endfacet
  facet normal 1 0 0
    outer loop
      vertex 137 32.5 42.5
      vertex 137 21 39.5
      vertex 137 59 39.5
    endloop
  endfacet
  facet normal 0 0 -1
    outer loop
      vertex 0.500015 47.5 45.5
      vertex 3 49 45.5
      vertex 3 47.5 45.5
    endloop
  endfacet
  facet normal 0 0 -1
    outer loop
      vertex 0 34 45.5
      vertex 0.500015 47.5 45.5
      vertex 0.500002 34 45.5
    endloop
  endfacet
  facet normal 0 0 -1
    outer loop
      vertex 0.500015 47.5 45.5
      vertex 0 49 45.5
      vertex 3 49 45.5
    endloop
  endfacet
  facet normal 0 0 -1
    outer loop
      vertex 0 49 45.5
      vertex 0.500015 47.5 45.5
      vertex 0 34 45.5
    endloop
  endfacet
  facet normal 0 0 1
    outer loop
      vertex 77.5 6 45.5
      vertex 3 34 45.5
      vertex 3 32.5 45.5
    endloop
  endfacet
  facet normal 0 0 1
    outer loop
      vertex 62.5 74 45.5
      vertex 77.5 74 45.5
      vertex 77.5 78 45.5
    endloop
  endfacet
  facet normal 0 0 1
    outer loop
      vertex 62.5 74 45.5
      vertex 77.5 78 45.5
      vertex 62.5 78 45.5
    endloop
  endfacet
  facet normal 0 0 1
    outer loop
      vertex 77.5 74 45.5
      vertex 62.5 74 45.5
      vertex 77.5 6 45.5
    endloop
  endfacet
  facet normal 0 0 1
    outer loop
      vertex 3 49 45.5
      vertex 62.5 74 45.5
      vertex 3 74 45.5
    endloop
  endfacet
  facet normal 0 0 1
    outer loop
      vertex 3 47.5 45.5
      vertex 62.5 74 45.5
      vertex 3 49 45.5
    endloop
  endfacet
  facet normal 0 0 1
    outer loop
      vertex 3 34 45.5
      vertex 62.5 74 45.5
      vertex 3 47.5 45.5
    endloop
  endfacet
  facet normal -0 0 1
    outer loop
      vertex 3 34 45.5
      vertex 77.5 6 45.5
      vertex 62.5 74 45.5
    endloop
  endfacet
  facet normal 0 0 1
    outer loop
      vertex 77.5 6 45.5
      vertex 3 32.5 45.5
      vertex 3 6 45.5
    endloop
  endfacet
  facet normal -0 0 1
    outer loop
      vertex 77.5 74 45.5
      vertex 137 47.5 45.5
      vertex 137 74 45.5
    endloop
  endfacet
  facet normal 0 -0 1
    outer loop
      vertex 79 6 45.5
      vertex 137 47.5 45.5
      vertex 77.5 74 45.5
    endloop
  endfacet
  facet normal 0 0 1
    outer loop
      vertex 137 32.5 45.5
      vertex 79 6 45.5
      vertex 137 6 45.5
    endloop
  endfacet
  facet normal 0 0 1
    outer loop
      vertex 137 47.5 45.5
      vertex 79 6 45.5
      vertex 137 32.5 45.5
    endloop
  endfacet
  facet normal 0 0 1
    outer loop
      vertex 79 6 45.5
      vertex 77.5 74 45.5
      vertex 77.5 6 45.5
    endloop
  endfacet
  facet normal -0 0 1
    outer loop
      vertex 137 47.5 45.5
      vertex 140 32.5 45.5
      vertex 140 47.5 45.5
    endloop
  endfacet
  facet normal 0 0 1
    outer loop
      vertex 140 32.5 45.5
      vertex 137 47.5 45.5
      vertex 137 32.5 45.5
    endloop
  endfacet
  facet normal 0 0 -1
    outer loop
      vertex 77.5 3 45.5
      vertex 79 6 45.5
      vertex 79 3 45.5
    endloop
  endfacet
  facet normal -0 0 -1
    outer loop
      vertex 79 6 45.5
      vertex 77.5 3 45.5
      vertex 77.5 6 45.5
    endloop
  endfacet
  facet normal -1 0 0
    outer loop
      vertex 79 3 42.5
      vertex 79 6 45.5
      vertex 79 6 42.5
    endloop
  endfacet
  facet normal -1 -0 0
    outer loop
      vertex 79 6 45.5
      vertex 79 3 42.5
      vertex 79 3 45.5
    endloop
  endfacet
  facet normal -0 0 1
    outer loop
      vertex 114.5 76.5 42.5
      vertex 129.5 74 42.5
      vertex 129.5 76.5 42.5
    endloop
  endfacet
  facet normal 0 0 1
    outer loop
      vertex 129.5 74 42.5
      vertex 114.5 76.5 42.5
      vertex 114.5 74 42.5
    endloop
  endfacet
  facet normal -0 0 1
    outer loop
      vertex 137 21 42.5
      vertex 140 6 42.5
      vertex 140 21 42.5
    endloop
  endfacet
  facet normal 0 0 1
    outer loop
      vertex 140 6 42.5
      vertex 137 21 42.5
      vertex 137 6 42.5
    endloop
  endfacet
  facet normal -0 0 1
    outer loop
      vertex 137 74 42.5
      vertex 140 59 42.5
      vertex 140 74 42.5
    endloop
  endfacet
  facet normal 0 0 1
    outer loop
      vertex 140 59 42.5
      vertex 137 74 42.5
      vertex 137 59 42.5
    endloop
  endfacet
  facet normal 0 0 -1
    outer loop
      vertex 45 15 42.5
      vertex 95 65 42.5
      vertex 95 15 42.5
    endloop
  endfacet
  facet normal -0 0 -1
    outer loop
      vertex 95 65 42.5
      vertex 45 15 42.5
      vertex 45 65 42.5
    endloop
  endfacet
  facet normal -0 0 1
    outer loop
      vertex 10.5 76.5 42.5
      vertex 25.5 74 42.5
      vertex 25.5 76.5 42.5
    endloop
  endfacet
  facet normal 0 0 1
    outer loop
      vertex 25.5 74 42.5
      vertex 10.5 76.5 42.5
      vertex 10.5 74 42.5
    endloop
  endfacet
  facet normal 0 0 -1
    outer loop
      vertex 25.5 3 42.5
      vertex 27 6 42.5
      vertex 27 3 42.5
    endloop
  endfacet
  facet normal -0 0 -1
    outer loop
      vertex 27 6 42.5
      vertex 25.5 3 42.5
      vertex 25.5 6 42.5
    endloop
  endfacet
  facet normal 0 0 -1
    outer loop
      vertex 0 59 42.5
      vertex 0.500015 74 42.5
      vertex 0.5 59 42.5
    endloop
  endfacet
  facet normal -0 0 -1
    outer loop
      vertex 0.500015 74 42.5
      vertex 0 59 42.5
      vertex 0 74 42.5
    endloop
  endfacet
  facet normal 0 0 -1
    outer loop
      vertex 0 6 42.5
      vertex 0.500015 21 42.5
      vertex 0.5 6 42.5
    endloop
  endfacet
  facet normal -0 0 -1
    outer loop
      vertex 0.500015 21 42.5
      vertex 0 6 42.5
      vertex 0 21 42.5
    endloop
  endfacet
  facet normal 0 0 -1
    outer loop
      vertex 113 3 42.5
      vertex 114.5 6 42.5
      vertex 114.5 3 42.5
    endloop
  endfacet
  facet normal -0 0 -1
    outer loop
      vertex 114.5 6 42.5
      vertex 113 3 42.5
      vertex 113 6 42.5
    endloop
  endfacet
  facet normal 0 0 -1
    outer loop
      vertex 3 32.5 42.5
      vertex 3 34 42.5
      vertex 3 47.5 42.5
    endloop
  endfacet
  facet normal 0 0 1
    outer loop
      vertex 3 49 42.5
      vertex 0.500015 47.5 42.5
      vertex 3 47.5 42.5
    endloop
  endfacet
  facet normal -0 0 1
    outer loop
      vertex 0 49 42.5
      vertex 0.500015 47.5 42.5
      vertex 3 49 42.5
    endloop
  endfacet
  facet normal 0 0 1
    outer loop
      vertex 0 34 42.5
      vertex 0.500015 47.5 42.5
      vertex 0 49 42.5
    endloop
  endfacet
  facet normal 0 0 1
    outer loop
      vertex 0.500015 47.5 42.5
      vertex 0 34 42.5
      vertex 0.500002 34 42.5
    endloop
  endfacet
  facet normal 0 0 -1
    outer loop
      vertex 62.5 74 42.5
      vertex 77.5 78 42.5
      vertex 77.5 74 42.5
    endloop
  endfacet
  facet normal -0 0 -1
    outer loop
      vertex 77.5 78 42.5
      vertex 62.5 74 42.5
      vertex 62.5 78 42.5
    endloop
  endfacet
  facet normal -0 0 1
    outer loop
      vertex 77.5 6 42.5
      vertex 79 3 42.5
      vertex 79 6 42.5
    endloop
  endfacet
  facet normal 0 0 1
    outer loop
      vertex 79 3 42.5
      vertex 77.5 6 42.5
      vertex 77.5 3 42.5
    endloop
  endfacet
  facet normal 0 0 -1
    outer loop
      vertex 137 32.5 42.5
      vertex 140 47.5 42.5
      vertex 140 32.5 42.5
    endloop
  endfacet
  facet normal -0 0 -1
    outer loop
      vertex 140 47.5 42.5
      vertex 137 32.5 42.5
      vertex 137 47.5 42.5
    endloop
  endfacet
  facet normal 1 -0 0
    outer loop
      vertex 113 3 42.5
      vertex 113 6 39.5
      vertex 113 6 42.5
    endloop
  endfacet
  facet normal 1 0 0
    outer loop
      vertex 113 6 39.5
      vertex 113 3 42.5
      vertex 113 3 39.5
    endloop
  endfacet
  facet normal -0 0 -1
    outer loop
      vertex 25.5 76.5 39.5
      vertex 10.5 74 39.5
      vertex 10.5 76.5 39.5
    endloop
  endfacet
  facet normal 0 0 -1
    outer loop
      vertex 113 6 39.5
      vertex 45 15 39.5
      vertex 95 15 39.5
    endloop
  endfacet
  facet normal 0 0 -1
    outer loop
      vertex 25.5 6 39.5
      vertex 45 15 39.5
      vertex 27 6 39.5
    endloop
  endfacet
  facet normal 0 0 -1
    outer loop
      vertex 27 6 39.5
      vertex 45 15 39.5
      vertex 113 6 39.5
    endloop
  endfacet
  facet normal -0 0 -1
    outer loop
      vertex 137 21 39.5
      vertex 95 15 39.5
      vertex 137 59 39.5
    endloop
  endfacet
  facet normal 0 0 -1
    outer loop
      vertex 95 65 39.5
      vertex 137 59 39.5
      vertex 95 15 39.5
    endloop
  endfacet
  facet normal 0 0 -1
    outer loop
      vertex 137 59 39.5
      vertex 95 65 39.5
      vertex 114.5 74 39.5
    endloop
  endfacet
  facet normal 0 0 -1
    outer loop
      vertex 45 65 39.5
      vertex 114.5 74 39.5
      vertex 95 65 39.5
    endloop
  endfacet
  facet normal -0 0 -1
    outer loop
      vertex 45 15 39.5
      vertex 25.5 6 39.5
      vertex 3 21 39.5
    endloop
  endfacet
  facet normal 0 0 -1
    outer loop
      vertex 45 65 39.5
      vertex 25.5 74 39.5
      vertex 114.5 74 39.5
    endloop
  endfacet
  facet normal 0 0 -1
    outer loop
      vertex 45 15 39.5
      vertex 3 49.8571 39.5
      vertex 45 65 39.5
    endloop
  endfacet
  facet normal -0 0 -1
    outer loop
      vertex 45 65 39.5
      vertex 3 49.8571 39.5
      vertex 25.5 74 39.5
    endloop
  endfacet
  facet normal 0 -0 -1
    outer loop
      vertex 10.5 74 39.5
      vertex 25.5 74 39.5
      vertex 3 49.8571 39.5
    endloop
  endfacet
  facet normal 0 0 -1
    outer loop
      vertex 3 21 39.5
      vertex 25.5 6 39.5
      vertex 3 6 39.5
    endloop
  endfacet
  facet normal 0 0 -1
    outer loop
      vertex 45 15 39.5
      vertex 3 21 39.5
      vertex 3 49.8571 39.5
    endloop
  endfacet
  facet normal 0 0 -1
    outer loop
      vertex 25.5 74 39.5
      vertex 10.5 74 39.5
      vertex 25.5 76.5 39.5
    endloop
  endfacet
  facet normal -0 0 -1
    outer loop
      vertex 10.5 74 39.5
      vertex 3 49.8571 39.5
      vertex 3 74 39.5
    endloop
  endfacet
  facet normal 0 0 -1
    outer loop
      vertex 137 6 39.5
      vertex 140 21 39.5
      vertex 140 6 39.5
    endloop
  endfacet
  facet normal 0 0 -1
    outer loop
      vertex 137 6 39.5
      vertex 137 21 39.5
      vertex 140 21 39.5
    endloop
  endfacet
  facet normal 0 0 -1
    outer loop
      vertex 114.5 6 39.5
      vertex 137 21 39.5
      vertex 137 6 39.5
    endloop
  endfacet
  facet normal 0 0 -1
    outer loop
      vertex 95 15 39.5
      vertex 114.5 6 39.5
      vertex 113 6 39.5
    endloop
  endfacet
  facet normal 0 0 -1
    outer loop
      vertex 114.5 6 39.5
      vertex 95 15 39.5
      vertex 137 21 39.5
    endloop
  endfacet
  facet normal 0 0 -1
    outer loop
      vertex 137 59 39.5
      vertex 114.5 74 39.5
      vertex 129.5 74 39.5
    endloop
  endfacet
  facet normal 0 0 -1
    outer loop
      vertex 129.5 74 39.5
      vertex 114.5 74 39.5
      vertex 129.5 76.5 39.5
    endloop
  endfacet
  facet normal -0 0 -1
    outer loop
      vertex 129.5 76.5 39.5
      vertex 114.5 74 39.5
      vertex 114.5 76.5 39.5
    endloop
  endfacet
  facet normal 0 0 -1
    outer loop
      vertex 137 59 39.5
      vertex 140 74 39.5
      vertex 140 59 39.5
    endloop
  endfacet
  facet normal -0 0 -1
    outer loop
      vertex 140 74 39.5
      vertex 137 59 39.5
      vertex 129.5 74 39.5
    endloop
  endfacet
  facet normal -0 0 1
    outer loop
      vertex 25.5 6 39.5
      vertex 27 3 39.5
      vertex 27 6 39.5
    endloop
  endfacet
  facet normal 0 0 1
    outer loop
      vertex 27 3 39.5
      vertex 25.5 6 39.5
      vertex 25.5 3 39.5
    endloop
  endfacet
  facet normal -0 0 1
    outer loop
      vertex 0 74 39.5
      vertex 0.5 59 39.5
      vertex 0.500015 74 39.5
    endloop
  endfacet
  facet normal 0 0 1
    outer loop
      vertex 0.5 59 39.5
      vertex 0 74 39.5
      vertex 0 59 39.5
    endloop
  endfacet
  facet normal -0 0 1
    outer loop
      vertex 0 21 39.5
      vertex 0.5 6 39.5
      vertex 0.500015 21 39.5
    endloop
  endfacet
  facet normal 0 0 1
    outer loop
      vertex 0.5 6 39.5
      vertex 0 21 39.5
      vertex 0 6 39.5
    endloop
  endfacet
  facet normal -0 0 1
    outer loop
      vertex 113 6 39.5
      vertex 114.5 3 39.5
      vertex 114.5 6 39.5
    endloop
  endfacet
  facet normal 0 0 1
    outer loop
      vertex 114.5 3 39.5
      vertex 113 6 39.5
      vertex 113 3 39.5
    endloop
  endfacet
  facet normal -1 0 0
    outer loop
      vertex 27 3 39.5
      vertex 27 6 42.5
      vertex 27 6 39.5
    endloop
  endfacet
  facet normal -1 -0 0
    outer loop
      vertex 27 6 42.5
      vertex 27 3 39.5
      vertex 27 3 42.5
    endloop
  endfacet
  facet normal 1 -0 0
    outer loop
      vertex 113 3 7.5
      vertex 113 6 4.5
      vertex 113 6 7.5
    endloop
  endfacet
  facet normal 1 0 0
    outer loop
      vertex 113 6 4.5
      vertex 113 3 7.5
      vertex 113 3 4.5
    endloop
  endfacet
  facet normal 0 0 1
    outer loop
      vertex 129.5 76.5 7.5
      vertex 114.5 76.5 7.5
      vertex 129.5 74 7.5
    endloop
  endfacet
  facet normal 0 0 1
    outer loop
      vertex 140 74 7.5
      vertex 137 59 7.5
      vertex 140 59 7.5
    endloop
  endfacet
  facet normal 0 0 1
    outer loop
      vertex 113 6 7.5
      vertex 137 21 7.5
      vertex 137 59 7.5
    endloop
  endfacet
  facet normal -0 0 1
    outer loop
      vertex 129.5 74 7.5
      vertex 137 59 7.5
      vertex 140 74 7.5
    endloop
  endfacet
  facet normal -0 0 1
    outer loop
      vertex 114.5 74 7.5
      vertex 137 59 7.5
      vertex 129.5 74 7.5
    endloop
  endfacet
  facet normal 0 0 1
    outer loop
      vertex 114.5 74 7.5
      vertex 129.5 74 7.5
      vertex 114.5 76.5 7.5
    endloop
  endfacet
  facet normal 0 0 1
    outer loop
      vertex 113 6 7.5
      vertex 137 59 7.5
      vertex 114.5 74 7.5
    endloop
  endfacet
  facet normal 0 0 1
    outer loop
      vertex 137 21 7.5
      vertex 114.5 6 7.5
      vertex 137 6 7.5
    endloop
  endfacet
  facet normal 0 0 1
    outer loop
      vertex 137 21 7.5
      vertex 113 6 7.5
      vertex 114.5 6 7.5
    endloop
  endfacet
  facet normal 0 0 1
    outer loop
      vertex 114.5 74 7.5
      vertex 27 6 7.5
      vertex 113 6 7.5
    endloop
  endfacet
  facet normal -0 0 1
    outer loop
      vertex 25.5 74 7.5
      vertex 27 6 7.5
      vertex 114.5 74 7.5
    endloop
  endfacet
  facet normal -0 0 1
    outer loop
      vertex 3 59 7.5
      vertex 27 6 7.5
      vertex 25.5 74 7.5
    endloop
  endfacet
  facet normal -0 0 1
    outer loop
      vertex 137 21 7.5
      vertex 140 6 7.5
      vertex 140 21 7.5
    endloop
  endfacet
  facet normal 0 0 1
    outer loop
      vertex 140 6 7.5
      vertex 137 21 7.5
      vertex 137 6 7.5
    endloop
  endfacet
  facet normal 0 0 1
    outer loop
      vertex 10.5 74 7.5
      vertex 25.5 74 7.5
      vertex 25.5 76.5 7.5
    endloop
  endfacet
  facet normal 0 0 1
    outer loop
      vertex 10.5 74 7.5
      vertex 25.5 76.5 7.5
      vertex 10.5 76.5 7.5
    endloop
  endfacet
  facet normal 0 0 1
    outer loop
      vertex 25.5 74 7.5
      vertex 10.5 74 7.5
      vertex 3 59 7.5
    endloop
  endfacet
  facet normal 0 0 1
    outer loop
      vertex 3 59 7.5
      vertex 10.5 74 7.5
      vertex 3 74 7.5
    endloop
  endfacet
  facet normal -0 0 1
    outer loop
      vertex 3 21 7.5
      vertex 27 6 7.5
      vertex 3 59 7.5
    endloop
  endfacet
  facet normal 0 0 1
    outer loop
      vertex 27 6 7.5
      vertex 3 21 7.5
      vertex 25.5 6 7.5
    endloop
  endfacet
  facet normal 0 0 1
    outer loop
      vertex 3 21 7.5
      vertex 3 6 7.5
      vertex 25.5 6 7.5
    endloop
  endfacet
  facet normal 0 0 -1
    outer loop
      vertex 25.5 3 7.5
      vertex 27 6 7.5
      vertex 27 3 7.5
    endloop
  endfacet
  facet normal -0 0 -1
    outer loop
      vertex 27 6 7.5
      vertex 25.5 3 7.5
      vertex 25.5 6 7.5
    endloop
  endfacet
  facet normal 0 0 -1
    outer loop
      vertex 0 59 7.5
      vertex 0.500015 74 7.5
      vertex 0.5 59 7.5
    endloop
  endfacet
  facet normal -0 0 -1
    outer loop
      vertex 0.500015 74 7.5
      vertex 0 59 7.5
      vertex 0 74 7.5
    endloop
  endfacet
  facet normal 0 0 -1
    outer loop
      vertex 0 6 7.5
      vertex 0.500015 21 7.5
      vertex 0.5 6 7.5
    endloop
  endfacet
  facet normal -0 0 -1
    outer loop
      vertex 0.500015 21 7.5
      vertex 0 6 7.5
      vertex 0 21 7.5
    endloop
  endfacet
  facet normal 0 0 -1
    outer loop
      vertex 113 3 7.5
      vertex 114.5 6 7.5
      vertex 114.5 3 7.5
    endloop
  endfacet
  facet normal -0 0 -1
    outer loop
      vertex 114.5 6 7.5
      vertex 113 3 7.5
      vertex 113 6 7.5
    endloop
  endfacet
  facet normal -0 0 -1
    outer loop
      vertex 137 59 4.5
      vertex 113 6 4.5
      vertex 114.5 74 4.5
    endloop
  endfacet
  facet normal 0 0 -1
    outer loop
      vertex 27 6 4.5
      vertex 114.5 74 4.5
      vertex 113 6 4.5
    endloop
  endfacet
  facet normal 0 0 -1
    outer loop
      vertex 25.5 74 4.5
      vertex 27 6 4.5
      vertex 25.5 6 4.5
    endloop
  endfacet
  facet normal 0 0 -1
    outer loop
      vertex 27 6 4.5
      vertex 25.5 74 4.5
      vertex 114.5 74 4.5
    endloop
  endfacet
  facet normal 0 0 -1
    outer loop
      vertex 10.5 74 4.5
      vertex 25.5 74 4.5
      vertex 25.5 6 4.5
    endloop
  endfacet
  facet normal 0 0 -1
    outer loop
      vertex 25.5 74 4.5
      vertex 10.5 74 4.5
      vertex 25.5 76.5 4.5
    endloop
  endfacet
  facet normal 0 0 -1
    outer loop
      vertex 3 6 4.5
      vertex 10.5 74 4.5
      vertex 25.5 6 4.5
    endloop
  endfacet
  facet normal -0 0 -1
    outer loop
      vertex 10.5 74 4.5
      vertex 3 6 4.5
      vertex 3 74 4.5
    endloop
  endfacet
  facet normal 0 0 -1
    outer loop
      vertex 137 6 4.5
      vertex 140 21 4.5
      vertex 140 6 4.5
    endloop
  endfacet
  facet normal 0 0 -1
    outer loop
      vertex 137 6 4.5
      vertex 137 21 4.5
      vertex 140 21 4.5
    endloop
  endfacet
  facet normal 0 0 -1
    outer loop
      vertex 114.5 6 4.5
      vertex 137 21 4.5
      vertex 137 6 4.5
    endloop
  endfacet
  facet normal 0 0 -1
    outer loop
      vertex 113 6 4.5
      vertex 137 21 4.5
      vertex 114.5 6 4.5
    endloop
  endfacet
  facet normal -0 0 -1
    outer loop
      vertex 137 21 4.5
      vertex 113 6 4.5
      vertex 137 59 4.5
    endloop
  endfacet
  facet normal 0 0 -1
    outer loop
      vertex 137 59 4.5
      vertex 114.5 74 4.5
      vertex 129.5 74 4.5
    endloop
  endfacet
  facet normal 0 0 -1
    outer loop
      vertex 129.5 74 4.5
      vertex 114.5 74 4.5
      vertex 129.5 76.5 4.5
    endloop
  endfacet
  facet normal -0 0 -1
    outer loop
      vertex 129.5 76.5 4.5
      vertex 114.5 74 4.5
      vertex 114.5 76.5 4.5
    endloop
  endfacet
  facet normal 0 0 -1
    outer loop
      vertex 137 59 4.5
      vertex 140 74 4.5
      vertex 140 59 4.5
    endloop
  endfacet
  facet normal -0 0 -1
    outer loop
      vertex 140 74 4.5
      vertex 137 59 4.5
      vertex 129.5 74 4.5
    endloop
  endfacet
  facet normal -0 0 -1
    outer loop
      vertex 25.5 76.5 4.5
      vertex 10.5 74 4.5
      vertex 10.5 76.5 4.5
    endloop
  endfacet
  facet normal -0 0 1
    outer loop
      vertex 25.5 6 4.5
      vertex 27 3 4.5
      vertex 27 6 4.5
    endloop
  endfacet
  facet normal 0 0 1
    outer loop
      vertex 27 3 4.5
      vertex 25.5 6 4.5
      vertex 25.5 3 4.5
    endloop
  endfacet
  facet normal -0 0 1
    outer loop
      vertex 0 74 4.5
      vertex 0.5 59 4.5
      vertex 0.500015 74 4.5
    endloop
  endfacet
  facet normal 0 0 1
    outer loop
      vertex 0.5 59 4.5
      vertex 0 74 4.5
      vertex 0 59 4.5
    endloop
  endfacet
  facet normal -0 0 1
    outer loop
      vertex 0 21 4.5
      vertex 0.5 6 4.5
      vertex 0.500015 21 4.5
    endloop
  endfacet
  facet normal 0 0 1
    outer loop
      vertex 0.5 6 4.5
      vertex 0 21 4.5
      vertex 0 6 4.5
    endloop
  endfacet
  facet normal -0 0 1
    outer loop
      vertex 113 6 4.5
      vertex 114.5 3 4.5
      vertex 114.5 6 4.5
    endloop
  endfacet
  facet normal 0 0 1
    outer loop
      vertex 114.5 3 4.5
      vertex 113 6 4.5
      vertex 113 3 4.5
    endloop
  endfacet
  facet normal -1 0 0
    outer loop
      vertex 27 3 4.5
      vertex 27 6 7.5
      vertex 27 6 4.5
    endloop
  endfacet
  facet normal -1 -0 0
    outer loop
      vertex 27 6 7.5
      vertex 27 3 4.5
      vertex 27 3 7.5
    endloop
  endfacet
  facet normal -1 0 0
    outer loop
      vertex 0 6 7.5
      vertex 0 21 39.5
      vertex 0 21 7.5
    endloop
  endfacet
  facet normal -1 -0 0
    outer loop
      vertex 0 21 39.5
      vertex 0 6 7.5
      vertex 0 6 39.5
    endloop
  endfacet
  facet normal -1 0 0
    outer loop
      vertex 0 59 7.5
      vertex 0 74 39.5
      vertex 0 74 7.5
    endloop
  endfacet
  facet normal -1 -0 0
    outer loop
      vertex 0 74 39.5
      vertex 0 59 7.5
      vertex 0 59 39.5
    endloop
  endfacet
  facet normal -1 0 0
    outer loop
      vertex 0 74 7.5
      vertex 0 80 0
      vertex 0 74 4.5
    endloop
  endfacet
  facet normal -1 0 0
    outer loop
      vertex 0 80 0
      vertex 0 59 4.5
      vertex 0 74 4.5
    endloop
  endfacet
  facet normal -1 0 0
    outer loop
      vertex 0 21 7.5
      vertex 0 59 7.5
      vertex 0 59 4.5
    endloop
  endfacet
  facet normal -1 0 0
    outer loop
      vertex 0 59 7.5
      vertex 0 49 42.5
      vertex 0 59 39.5
    endloop
  endfacet
  facet normal -1 0 0
    outer loop
      vertex 0 59 39.5
      vertex 0 49 42.5
      vertex 0 59 42.5
    endloop
  endfacet
  facet normal -1 0 0
    outer loop
      vertex 0 59 7.5
      vertex 0 34 42.5
      vertex 0 49 42.5
    endloop
  endfacet
  facet normal -1 0 0
    outer loop
      vertex 0 59 7.5
      vertex 0 21 7.5
      vertex 0 34 42.5
    endloop
  endfacet
  facet normal -1 0 0
    outer loop
      vertex 0 21 7.5
      vertex 0 59 4.5
      vertex 0 21 4.5
    endloop
  endfacet
  facet normal -1 0 0
    outer loop
      vertex 0 80 0
      vertex 0 21 4.5
      vertex 0 59 4.5
    endloop
  endfacet
  facet normal -1 0 0
    outer loop
      vertex 0 0 0
      vertex 0 21 4.5
      vertex 0 80 0
    endloop
  endfacet
  facet normal -1 0 0
    outer loop
      vertex 0 0 0
      vertex 0 6 7.5
      vertex 0 6 4.5
    endloop
  endfacet
  facet normal -1 -0 0
    outer loop
      vertex 0 6 7.5
      vertex 0 0 0
      vertex 0 6 39.5
    endloop
  endfacet
  facet normal -1 0 0
    outer loop
      vertex 0 0 50
      vertex 0 6 39.5
      vertex 0 0 0
    endloop
  endfacet
  facet normal -1 -0 0
    outer loop
      vertex 0 21 4.5
      vertex 0 0 0
      vertex 0 6 4.5
    endloop
  endfacet
  facet normal -1 0 0
    outer loop
      vertex 0 74 39.5
      vertex 0 80 0
      vertex 0 74 7.5
    endloop
  endfacet
  facet normal -1 0 0
    outer loop
      vertex 0 80 0
      vertex 0 74 39.5
      vertex 0 80 50
    endloop
  endfacet
  facet normal -1 0 0
    outer loop
      vertex 0 74 42.5
      vertex 0 80 50
      vertex 0 74 39.5
    endloop
  endfacet
  facet normal -1 0 0
    outer loop
      vertex 0 59 42.5
      vertex 0 80 50
      vertex 0 74 42.5
    endloop
  endfacet
  facet normal -1 0 0
    outer loop
      vertex 0 49 45.5
      vertex 0 59 42.5
      vertex 0 49 42.5
    endloop
  endfacet
  facet normal -1 0 0
    outer loop
      vertex 0 59 42.5
      vertex 0 49 45.5
      vertex 0 80 50
    endloop
  endfacet
  facet normal -1 0 0
    outer loop
      vertex 0 34 45.5
      vertex 0 80 50
      vertex 0 49 45.5
    endloop
  endfacet
  facet normal -1 0 0
    outer loop
      vertex 0 21 39.5
      vertex 0 34 42.5
      vertex 0 21 7.5
    endloop
  endfacet
  facet normal -1 0 0
    outer loop
      vertex 0 21 42.5
      vertex 0 34 42.5
      vertex 0 21 39.5
    endloop
  endfacet
  facet normal -1 0 0
    outer loop
      vertex 0 34 42.5
      vertex 0 21 42.5
      vertex 0 34 45.5
    endloop
  endfacet
  facet normal -1 0 0
    outer loop
      vertex 0 0 50
      vertex 0 21 42.5
      vertex 0 6 42.5
    endloop
  endfacet
  facet normal -1 0 0
    outer loop
      vertex 0 34 45.5
      vertex 0 0 50
      vertex 0 80 50
    endloop
  endfacet
  facet normal -1 0 0
    outer loop
      vertex 0 21 42.5
      vertex 0 0 50
      vertex 0 34 45.5
    endloop
  endfacet
  facet normal -1 0 0
    outer loop
      vertex 0 6 39.5
      vertex 0 0 50
      vertex 0 6 42.5
    endloop
  endfacet
  facet normal 1 -1.19209e-08 -9.00692e-08
    outer loop
      vertex 3 34 45.5
      vertex 3 80 50
      vertex 3 0 50
    endloop
  endfacet
  facet normal 1 -6.87746e-09 2.98023e-08
    outer loop
      vertex 3 21 7.5
      vertex 3 34 42.5
      vertex 3 21 39.5
    endloop
  endfacet
  facet normal 1 0 0
    outer loop
      vertex 3 80 50
      vertex 3 47.5 45.5
      vertex 3 49 45.5
    endloop
  endfacet
  facet normal 1 -7.06425e-08 5.10196e-07
    outer loop
      vertex 3 47.5 45.5
      vertex 3 80 50
      vertex 3 34 45.5
    endloop
  endfacet
  facet normal 1 3.33786e-08 1.90735e-08
    outer loop
      vertex 3 0 0
      vertex 3 6 39.5
      vertex 3 0 50
    endloop
  endfacet
  facet normal 1 0 0
    outer loop
      vertex 3 21 39.5
      vertex 3 32.5 42.5
      vertex 3 21 42.5
    endloop
  endfacet
  facet normal 1 -0 0
    outer loop
      vertex 3 32.5 42.5
      vertex 3 21 39.5
      vertex 3 34 42.5
    endloop
  endfacet
  facet normal 1 0 0
    outer loop
      vertex 3 32.5 45.5
      vertex 3 21 42.5
      vertex 3 32.5 42.5
    endloop
  endfacet
  facet normal 1 0 0
    outer loop
      vertex 3 0 50
      vertex 3 21 42.5
      vertex 3 32.5 45.5
    endloop
  endfacet
  facet normal 1 0 0
    outer loop
      vertex 3 6 42.5
      vertex 3 0 50
      vertex 3 6 39.5
    endloop
  endfacet
  facet normal 1 0 0
    outer loop
      vertex 3 21 42.5
      vertex 3 0 50
      vertex 3 6 42.5
    endloop
  endfacet
  facet normal 1 0 0
    outer loop
      vertex 3 0 50
      vertex 3 32.5 45.5
      vertex 3 34 45.5
    endloop
  endfacet
  facet normal 1 -0 0
    outer loop
      vertex 3 47.5 42.5
      vertex 3 49.8571 39.5
      vertex 3 49 42.5
    endloop
  endfacet
  facet normal 1 -7.06425e-08 -5.55049e-08
    outer loop
      vertex 3 34 42.5
      vertex 3 49.8571 39.5
      vertex 3 47.5 42.5
    endloop
  endfacet
  facet normal 1 -6.35783e-08 -1.81652e-08
    outer loop
      vertex 3 49.8571 39.5
      vertex 3 34 42.5
      vertex 3 59 7.5
    endloop
  endfacet
  facet normal 1 -0 2.72478e-08
    outer loop
      vertex 3 21 7.5
      vertex 3 59 7.5
      vertex 3 34 42.5
    endloop
  endfacet
  facet normal 1 -6.35783e-08 0
    outer loop
      vertex 3 21 7.5
      vertex 3 6 39.5
      vertex 3 6 7.5
    endloop
  endfacet
  facet normal 1 1.58946e-07 0
    outer loop
      vertex 3 6 39.5
      vertex 3 0 0
      vertex 3 6 7.5
    endloop
  endfacet
  facet normal 1 -2.38419e-07 3.17891e-07
    outer loop
      vertex 3 6 7.5
      vertex 3 3 2.25
      vertex 3 6 4.5
    endloop
  endfacet
  facet normal 1 -2.38419e-07 3.17891e-07
    outer loop
      vertex 3 3 2.25
      vertex 3 6 7.5
      vertex 3 0 0
    endloop
  endfacet
  facet normal 1 0 2.98023e-08
    outer loop
      vertex 3 21 7.5
      vertex 3 21 39.5
      vertex 3 6 39.5
    endloop
  endfacet
  facet normal -0 0 1
    outer loop
      vertex 0 80 50
      vertex 3 0 50
      vertex 3 80 50
    endloop
  endfacet
  facet normal 0 0 1
    outer loop
      vertex 3 0 50
      vertex 0 80 50
      vertex 0 0 50
    endloop
  endfacet
  facet normal 0 -1 0
    outer loop
      vertex 0 0 0
      vertex 3 0 50
      vertex 0 0 50
    endloop
  endfacet
  facet normal 0 -1 -0
    outer loop
      vertex 3 0 50
      vertex 0 0 0
      vertex 3 0 0
    endloop
  endfacet
  facet normal 0 1 -0
    outer loop
      vertex 3 80 0
      vertex 0 80 50
      vertex 3 80 50
    endloop
  endfacet
  facet normal 0 1 0
    outer loop
      vertex 0 80 50
      vertex 3 80 0
      vertex 0 80 0
    endloop
  endfacet
  facet normal 0 1 -0
    outer loop
      vertex 0.500002 34 42.5
      vertex 0 34 45.5
      vertex 0.500002 34 45.5
    endloop
  endfacet
  facet normal 0 1 0
    outer loop
      vertex 0 34 45.5
      vertex 0.500002 34 42.5
      vertex 0 34 42.5
    endloop
  endfacet
  facet normal 0 -1 0
    outer loop
      vertex 0 49 42.5
      vertex 3 49 45.5
      vertex 0 49 45.5
    endloop
  endfacet
  facet normal 0 -1 -0
    outer loop
      vertex 3 49 45.5
      vertex 0 49 42.5
      vertex 3 49 42.5
    endloop
  endfacet
  facet normal 0 1 -0
    outer loop
      vertex 0.5 59 39.5
      vertex 0 59 42.5
      vertex 0.5 59 42.5
    endloop
  endfacet
  facet normal 0 1 0
    outer loop
      vertex 0 59 42.5
      vertex 0.5 59 39.5
      vertex 0 59 39.5
    endloop
  endfacet
  facet normal 0 1 0
    outer loop
      vertex 25.5 74 42.5
      vertex 62.5 74 45.5
      vertex 62.5 74 42.5
    endloop
  endfacet
  facet normal 0 1 0
    outer loop
      vertex 62.5 74 45.5
      vertex 25.5 74 42.5
      vertex 3 74 45.5
    endloop
  endfacet
  facet normal 0 1 -0
    outer loop
      vertex 10.5 74 42.5
      vertex 3 74 45.5
      vertex 25.5 74 42.5
    endloop
  endfacet
  facet normal 0 1 0
    outer loop
      vertex 3 74 39.5
      vertex 10.5 74 42.5
      vertex 10.5 74 39.5
    endloop
  endfacet
  facet normal 0 1 0
    outer loop
      vertex 10.5 74 42.5
      vertex 3 74 39.5
      vertex 3 74 45.5
    endloop
  endfacet
  facet normal 0 1 0
    outer loop
      vertex 129.5 74 42.5
      vertex 137 74 45.5
      vertex 137 74 42.5
    endloop
  endfacet
  facet normal 0 1 0
    outer loop
      vertex 114.5 74 42.5
      vertex 137 74 45.5
      vertex 129.5 74 42.5
    endloop
  endfacet
  facet normal 0 1 0
    outer loop
      vertex 137 74 45.5
      vertex 114.5 74 42.5
      vertex 77.5 74 45.5
    endloop
  endfacet
  facet normal 0 1 0
    outer loop
      vertex 114.5 74 42.5
      vertex 77.5 74 42.5
      vertex 77.5 74 45.5
    endloop
  endfacet
  facet normal 0 1 -0
    outer loop
      vertex 114.5 74 39.5
      vertex 77.5 74 42.5
      vertex 114.5 74 42.5
    endloop
  endfacet
  facet normal 0 1 0
    outer loop
      vertex 77.5 74 42.5
      vertex 114.5 74 39.5
      vertex 62.5 74 42.5
    endloop
  endfacet
  facet normal 0 1 0
    outer loop
      vertex 25.5 74 39.5
      vertex 62.5 74 42.5
      vertex 114.5 74 39.5
    endloop
  endfacet
  facet normal 0 1 0
    outer loop
      vertex 62.5 74 42.5
      vertex 25.5 74 39.5
      vertex 25.5 74 42.5
    endloop
  endfacet
  facet normal 0 1 -0
    outer loop
      vertex 140 74 39.5
      vertex 137 74 42.5
      vertex 140 74 42.5
    endloop
  endfacet
  facet normal 0 1 0
    outer loop
      vertex 129.5 74 39.5
      vertex 137 74 42.5
      vertex 140 74 39.5
    endloop
  endfacet
  facet normal 0 1 0
    outer loop
      vertex 137 74 42.5
      vertex 129.5 74 39.5
      vertex 129.5 74 42.5
    endloop
  endfacet
  facet normal 0 -1 0
    outer loop
      vertex 0 74 39.5
      vertex 0.500015 74 42.5
      vertex 0 74 42.5
    endloop
  endfacet
  facet normal 0 -1 -0
    outer loop
      vertex 0.500015 74 42.5
      vertex 0 74 39.5
      vertex 0.500015 74 39.5
    endloop
  endfacet
  facet normal 0 -1 0
    outer loop
      vertex 0 21 39.5
      vertex 0.500015 21 42.5
      vertex 0 21 42.5
    endloop
  endfacet
  facet normal 0 -1 -0
    outer loop
      vertex 0.500015 21 42.5
      vertex 0 21 39.5
      vertex 0.500015 21 39.5
    endloop
  endfacet
  facet normal 0 1 -0
    outer loop
      vertex 0.5 59 4.5
      vertex 0 59 7.5
      vertex 0.5 59 7.5
    endloop
  endfacet
  facet normal 0 1 0
    outer loop
      vertex 0 59 7.5
      vertex 0.5 59 4.5
      vertex 0 59 4.5
    endloop
  endfacet
  facet normal 0 1 -0
    outer loop
      vertex 10.5 74 4.5
      vertex 3 74 7.5
      vertex 10.5 74 7.5
    endloop
  endfacet
  facet normal 0 1 0
    outer loop
      vertex 3 74 7.5
      vertex 10.5 74 4.5
      vertex 3 74 4.5
    endloop
  endfacet
  facet normal 0 -1 0
    outer loop
      vertex 0 74 4.5
      vertex 0.500015 74 7.5
      vertex 0 74 7.5
    endloop
  endfacet
  facet normal 0 -1 -0
    outer loop
      vertex 0.500015 74 7.5
      vertex 0 74 4.5
      vertex 0.500015 74 4.5
    endloop
  endfacet
  facet normal 0 -1 0
    outer loop
      vertex 0 21 4.5
      vertex 0.500015 21 7.5
      vertex 0 21 7.5
    endloop
  endfacet
  facet normal 0 -1 -0
    outer loop
      vertex 0.500015 21 7.5
      vertex 0 21 4.5
      vertex 0.500015 21 4.5
    endloop
  endfacet
  facet normal 0 1 -0
    outer loop
      vertex 140 21 4.5
      vertex 137 21 7.5
      vertex 140 21 7.5
    endloop
  endfacet
  facet normal 0 1 0
    outer loop
      vertex 137 21 7.5
      vertex 140 21 4.5
      vertex 137 21 4.5
    endloop
  endfacet
  facet normal 1 -0 0
    outer loop
      vertex 137 21 7.5
      vertex 137 59 4.5
      vertex 137 59 7.5
    endloop
  endfacet
  facet normal 1 0 0
    outer loop
      vertex 137 59 4.5
      vertex 137 21 7.5
      vertex 137 21 4.5
    endloop
  endfacet
  facet normal 0 -1 0
    outer loop
      vertex 137 59 4.5
      vertex 140 59 7.5
      vertex 137 59 7.5
    endloop
  endfacet
  facet normal 0 -1 -0
    outer loop
      vertex 140 59 7.5
      vertex 137 59 4.5
      vertex 140 59 4.5
    endloop
  endfacet
  facet normal 1 -0 0
    outer loop
      vertex 140 59 7.5
      vertex 140 74 4.5
      vertex 140 74 7.5
    endloop
  endfacet
  facet normal 1 0 0
    outer loop
      vertex 140 74 4.5
      vertex 140 59 7.5
      vertex 140 59 4.5
    endloop
  endfacet
  facet normal 0 1 -0
    outer loop
      vertex 140 74 4.5
      vertex 129.5 74 7.5
      vertex 140 74 7.5
    endloop
  endfacet
  facet normal 0 1 0
    outer loop
      vertex 129.5 74 7.5
      vertex 140 74 4.5
      vertex 129.5 74 4.5
    endloop
  endfacet
  facet normal 1 -0 0
    outer loop
      vertex 129.5 74 7.5
      vertex 129.5 76.5 4.5
      vertex 129.5 76.5 7.5
    endloop
  endfacet
  facet normal 1 0 0
    outer loop
      vertex 129.5 76.5 4.5
      vertex 129.5 74 7.5
      vertex 129.5 74 4.5
    endloop
  endfacet
  facet normal 0 1 -0
    outer loop
      vertex 129.5 76.5 4.5
      vertex 114.5 76.5 7.5
      vertex 129.5 76.5 7.5
    endloop
  endfacet
  facet normal 0 1 0
    outer loop
      vertex 114.5 76.5 7.5
      vertex 129.5 76.5 4.5
      vertex 114.5 76.5 4.5
    endloop
  endfacet
  facet normal -1 0 0
    outer loop
      vertex 114.5 74 4.5
      vertex 114.5 76.5 7.5
      vertex 114.5 76.5 4.5
    endloop
  endfacet
  facet normal -1 -0 0
    outer loop
      vertex 114.5 76.5 7.5
      vertex 114.5 74 4.5
      vertex 114.5 74 7.5
    endloop
  endfacet
  facet normal 0 1 -0
    outer loop
      vertex 114.5 74 4.5
      vertex 25.5 74 7.5
      vertex 114.5 74 7.5
    endloop
  endfacet
  facet normal 0 1 0
    outer loop
      vertex 25.5 74 7.5
      vertex 114.5 74 4.5
      vertex 25.5 74 4.5
    endloop
  endfacet
  facet normal 1 -0 0
    outer loop
      vertex 25.5 74 7.5
      vertex 25.5 76.5 4.5
      vertex 25.5 76.5 7.5
    endloop
  endfacet
  facet normal 1 0 0
    outer loop
      vertex 25.5 76.5 4.5
      vertex 25.5 74 7.5
      vertex 25.5 74 4.5
    endloop
  endfacet
  facet normal 0 1 -0
    outer loop
      vertex 25.5 76.5 4.5
      vertex 10.5 76.5 7.5
      vertex 25.5 76.5 7.5
    endloop
  endfacet
  facet normal 0 1 0
    outer loop
      vertex 10.5 76.5 7.5
      vertex 25.5 76.5 4.5
      vertex 10.5 76.5 4.5
    endloop
  endfacet
  facet normal -1 0 0
    outer loop
      vertex 10.5 74 4.5
      vertex 10.5 76.5 7.5
      vertex 10.5 76.5 4.5
    endloop
  endfacet
  facet normal -1 -0 0
    outer loop
      vertex 10.5 76.5 7.5
      vertex 10.5 74 4.5
      vertex 10.5 74 7.5
    endloop
  endfacet
  facet normal -1 1.01725e-06 0
    outer loop
      vertex 0.5 59 4.5
      vertex 0.500015 74 7.5
      vertex 0.500015 74 4.5
    endloop
  endfacet
  facet normal -1 1.01725e-06 0
    outer loop
      vertex 0.500015 74 7.5
      vertex 0.5 59 4.5
      vertex 0.5 59 7.5
    endloop
  endfacet
  facet normal -1 1.01725e-06 0
    outer loop
      vertex 0.5 6 4.5
      vertex 0.500015 21 7.5
      vertex 0.500015 21 4.5
    endloop
  endfacet
  facet normal -1 1.01725e-06 0
    outer loop
      vertex 0.500015 21 7.5
      vertex 0.5 6 4.5
      vertex 0.5 6 7.5
    endloop
  endfacet
  facet normal 1 -0 0
    outer loop
      vertex 25.5 3 7.5
      vertex 25.5 6 4.5
      vertex 25.5 6 7.5
    endloop
  endfacet
  facet normal 1 0 0
    outer loop
      vertex 25.5 6 4.5
      vertex 25.5 3 7.5
      vertex 25.5 3 4.5
    endloop
  endfacet
  facet normal -1 0 0
    outer loop
      vertex 114.5 3 4.5
      vertex 114.5 6 7.5
      vertex 114.5 6 4.5
    endloop
  endfacet
  facet normal -1 -0 0
    outer loop
      vertex 114.5 6 7.5
      vertex 114.5 3 4.5
      vertex 114.5 3 7.5
    endloop
  endfacet
  facet normal 1 -0 0
    outer loop
      vertex 140 6 7.5
      vertex 140 21 4.5
      vertex 140 21 7.5
    endloop
  endfacet
  facet normal 1 0 0
    outer loop
      vertex 140 21 4.5
      vertex 140 6 7.5
      vertex 140 6 4.5
    endloop
  endfacet
  facet normal 0 1 -0
    outer loop
      vertex 3 47.5 42.5
      vertex 0.500015 47.5 45.5
      vertex 3 47.5 45.5
    endloop
  endfacet
  facet normal 0 1 0
    outer loop
      vertex 0.500015 47.5 45.5
      vertex 3 47.5 42.5
      vertex 0.500015 47.5 42.5
    endloop
  endfacet
  facet normal -1 1.01549e-06 0
    outer loop
      vertex 0.500002 34 42.5
      vertex 0.500015 47.5 45.5
      vertex 0.500015 47.5 42.5
    endloop
  endfacet
  facet normal -1 1.01549e-06 0
    outer loop
      vertex 0.500015 47.5 45.5
      vertex 0.500002 34 42.5
      vertex 0.500002 34 45.5
    endloop
  endfacet
  facet normal 1 -0 0
    outer loop
      vertex 77.5 3 45.5
      vertex 77.5 6 42.5
      vertex 77.5 6 45.5
    endloop
  endfacet
  facet normal 1 0 0
    outer loop
      vertex 77.5 6 42.5
      vertex 77.5 3 45.5
      vertex 77.5 3 42.5
    endloop
  endfacet
  facet normal 0 -1 0
    outer loop
      vertex 137 32.5 42.5
      vertex 140 32.5 45.5
      vertex 137 32.5 45.5
    endloop
  endfacet
  facet normal 0 -1 -0
    outer loop
      vertex 140 32.5 45.5
      vertex 137 32.5 42.5
      vertex 140 32.5 42.5
    endloop
  endfacet
  facet normal 1 -0 0
    outer loop
      vertex 140 32.5 45.5
      vertex 140 47.5 42.5
      vertex 140 47.5 45.5
    endloop
  endfacet
  facet normal 1 0 0
    outer loop
      vertex 140 47.5 42.5
      vertex 140 32.5 45.5
      vertex 140 32.5 42.5
    endloop
  endfacet
  facet normal 0 1 -0
    outer loop
      vertex 140 47.5 42.5
      vertex 137 47.5 45.5
      vertex 140 47.5 45.5
    endloop
  endfacet
  facet normal 0 1 0
    outer loop
      vertex 137 47.5 45.5
      vertex 140 47.5 42.5
      vertex 137 47.5 42.5
    endloop
  endfacet
  facet normal 1 -0 0
    outer loop
      vertex 77.5 74 45.5
      vertex 77.5 78 42.5
      vertex 77.5 78 45.5
    endloop
  endfacet
  facet normal 1 0 0
    outer loop
      vertex 77.5 78 42.5
      vertex 77.5 74 45.5
      vertex 77.5 74 42.5
    endloop
  endfacet
  facet normal 0 1 -0
    outer loop
      vertex 77.5 78 42.5
      vertex 62.5 78 45.5
      vertex 77.5 78 45.5
    endloop
  endfacet
  facet normal 0 1 0
    outer loop
      vertex 62.5 78 45.5
      vertex 77.5 78 42.5
      vertex 62.5 78 42.5
    endloop
  endfacet
  facet normal -1 0 0
    outer loop
      vertex 62.5 74 42.5
      vertex 62.5 78 45.5
      vertex 62.5 78 42.5
    endloop
  endfacet
  facet normal -1 -0 0
    outer loop
      vertex 62.5 78 45.5
      vertex 62.5 74 42.5
      vertex 62.5 74 45.5
    endloop
  endfacet
  facet normal 0 1 -0
    outer loop
      vertex 140 21 39.5
      vertex 137 21 42.5
      vertex 140 21 42.5
    endloop
  endfacet
  facet normal 0 1 0
    outer loop
      vertex 137 21 42.5
      vertex 140 21 39.5
      vertex 137 21 39.5
    endloop
  endfacet
  facet normal 0 -1 0
    outer loop
      vertex 137 59 39.5
      vertex 140 59 42.5
      vertex 137 59 42.5
    endloop
  endfacet
  facet normal 0 -1 -0
    outer loop
      vertex 140 59 42.5
      vertex 137 59 39.5
      vertex 140 59 39.5
    endloop
  endfacet
  facet normal 1 -0 0
    outer loop
      vertex 140 59 42.5
      vertex 140 74 39.5
      vertex 140 74 42.5
    endloop
  endfacet
  facet normal 1 0 0
    outer loop
      vertex 140 74 39.5
      vertex 140 59 42.5
      vertex 140 59 39.5
    endloop
  endfacet
  facet normal 1 -0 0
    outer loop
      vertex 129.5 74 42.5
      vertex 129.5 76.5 39.5
      vertex 129.5 76.5 42.5
    endloop
  endfacet
  facet normal 1 0 0
    outer loop
      vertex 129.5 76.5 39.5
      vertex 129.5 74 42.5
      vertex 129.5 74 39.5
    endloop
  endfacet
  facet normal 0 1 -0
    outer loop
      vertex 129.5 76.5 39.5
      vertex 114.5 76.5 42.5
      vertex 129.5 76.5 42.5
    endloop
  endfacet
  facet normal 0 1 0
    outer loop
      vertex 114.5 76.5 42.5
      vertex 129.5 76.5 39.5
      vertex 114.5 76.5 39.5
    endloop
  endfacet
  facet normal -1 0 0
    outer loop
      vertex 114.5 74 39.5
      vertex 114.5 76.5 42.5
      vertex 114.5 76.5 39.5
    endloop
  endfacet
  facet normal -1 -0 0
    outer loop
      vertex 114.5 76.5 42.5
      vertex 114.5 74 39.5
      vertex 114.5 74 42.5
    endloop
  endfacet
  facet normal 1 -0 0
    outer loop
      vertex 25.5 74 42.5
      vertex 25.5 76.5 39.5
      vertex 25.5 76.5 42.5
    endloop
  endfacet
  facet normal 1 0 0
    outer loop
      vertex 25.5 76.5 39.5
      vertex 25.5 74 42.5
      vertex 25.5 74 39.5
    endloop
  endfacet
  facet normal 0 1 -0
    outer loop
      vertex 25.5 76.5 39.5
      vertex 10.5 76.5 42.5
      vertex 25.5 76.5 42.5
    endloop
  endfacet
  facet normal 0 1 0
    outer loop
      vertex 10.5 76.5 42.5
      vertex 25.5 76.5 39.5
      vertex 10.5 76.5 39.5
    endloop
  endfacet
  facet normal -1 0 0
    outer loop
      vertex 10.5 74 39.5
      vertex 10.5 76.5 42.5
      vertex 10.5 76.5 39.5
    endloop
  endfacet
  facet normal -1 -0 0
    outer loop
      vertex 10.5 76.5 42.5
      vertex 10.5 74 39.5
      vertex 10.5 74 42.5
    endloop
  endfacet
  facet normal -1 1.01725e-06 0
    outer loop
      vertex 0.5 59 39.5
      vertex 0.500015 74 42.5
      vertex 0.500015 74 39.5
    endloop
  endfacet
  facet normal -1 1.01725e-06 0
    outer loop
      vertex 0.500015 74 42.5
      vertex 0.5 59 39.5
      vertex 0.5 59 42.5
    endloop
  endfacet
  facet normal -1 1.01725e-06 0
    outer loop
      vertex 0.5 6 39.5
      vertex 0.500015 21 42.5
      vertex 0.500015 21 39.5
    endloop
  endfacet
  facet normal -1 1.01725e-06 0
    outer loop
      vertex 0.500015 21 42.5
      vertex 0.5 6 39.5
      vertex 0.5 6 42.5
    endloop
  endfacet
  facet normal 1 -0 0
    outer loop
      vertex 25.5 3 42.5
      vertex 25.5 6 39.5
      vertex 25.5 6 42.5
    endloop
  endfacet
  facet normal 1 0 0
    outer loop
      vertex 25.5 6 39.5
      vertex 25.5 3 42.5
      vertex 25.5 3 39.5
    endloop
  endfacet
  facet normal -1 0 0
    outer loop
      vertex 114.5 3 39.5
      vertex 114.5 6 42.5
      vertex 114.5 6 39.5
    endloop
  endfacet
  facet normal -1 -0 0
    outer loop
      vertex 114.5 6 42.5
      vertex 114.5 3 39.5
      vertex 114.5 3 42.5
    endloop
  endfacet
  facet normal 1 -0 0
    outer loop
      vertex 140 6 42.5
      vertex 140 21 39.5
      vertex 140 21 42.5
    endloop
  endfacet
  facet normal 1 0 0
    outer loop
      vertex 140 21 39.5
      vertex 140 6 42.5
      vertex 140 6 39.5
    endloop
  endfacet
  facet normal 1 -0 0
    outer loop
      vertex 45 15 42.5
      vertex 45 65 39.5
      vertex 45 65 42.5
    endloop
  endfacet
  facet normal 1 0 0
    outer loop
      vertex 45 65 39.5
      vertex 45 15 42.5
      vertex 45 15 39.5
    endloop
  endfacet
  facet normal 0 -1 0
    outer loop
      vertex 45 65 39.5
      vertex 95 65 42.5
      vertex 45 65 42.5
    endloop
  endfacet
  facet normal 0 -1 -0
    outer loop
      vertex 95 65 42.5
      vertex 45 65 39.5
      vertex 95 65 39.5
    endloop
  endfacet
  facet normal -1 0 0
    outer loop
      vertex 95 15 39.5
      vertex 95 65 42.5
      vertex 95 65 39.5
    endloop
  endfacet
  facet normal -1 -0 0
    outer loop
      vertex 95 65 42.5
      vertex 95 15 39.5
      vertex 95 15 42.5
    endloop
  endfacet
  facet normal 0 1 -0
    outer loop
      vertex 95 15 39.5
      vertex 45 15 42.5
      vertex 95 15 42.5
    endloop
  endfacet
  facet normal 0 1 0
    outer loop
      vertex 45 15 42.5
      vertex 95 15 39.5
      vertex 45 15 39.5
    endloop
  endfacet
endsolid OpenSCAD_Model
